<svg xmlns="http://www.w3.org/2000/svg" xmlns:xlink="http://www.w3.org/1999/xlink" width="200" zoomAndPan="magnify" viewBox="0 0 150 52.499999" height="70" preserveAspectRatio="xMidYMid meet" version="1.0"><defs><g/></defs><g fill="#000000" fill-opacity="1"><g transform="translate(14.598239, 40.520202)"><g><path d="M -4.765625 2.53125 C -5.179688 2.21875 -5.445312 1.945312 -5.5625 1.71875 C -5.6875 1.488281 -5.75 1.109375 -5.75 0.578125 C -5.75 0.117188 -5.628906 -0.441406 -5.390625 -1.109375 C -5.160156 -1.785156 -4.972656 -2.125 -4.828125 -2.125 C -4.742188 -2.125 -4.703125 -2.203125 -4.703125 -2.359375 C -4.703125 -2.546875 -4.375 -2.984375 -3.71875 -3.671875 C -3.070312 -4.359375 -2.269531 -5.125 -1.3125 -5.96875 C -0.363281 -6.8125 0.585938 -7.578125 1.546875 -8.265625 C 2.160156 -8.722656 3.085938 -9.273438 4.328125 -9.921875 C 5.578125 -10.578125 6.910156 -11.191406 8.328125 -11.765625 C 9.742188 -12.347656 10.988281 -12.734375 12.0625 -12.921875 C 12.675781 -13.035156 13.046875 -13.128906 13.171875 -13.203125 C 13.304688 -13.285156 13.472656 -13.554688 13.671875 -14.015625 C 13.898438 -14.585938 14.117188 -15.175781 14.328125 -15.78125 C 14.535156 -16.394531 14.640625 -16.960938 14.640625 -17.484375 C 14.640625 -18.003906 14.390625 -18.378906 13.890625 -18.609375 C 13.054688 -19.066406 12.117188 -19.296875 11.078125 -19.296875 C 10.046875 -19.296875 9.039062 -19.273438 8.0625 -19.234375 C 7.09375 -19.191406 6.28125 -19.347656 5.625 -19.703125 C 4.75 -20.191406 4.414062 -20.800781 4.625 -21.53125 C 4.832031 -22.257812 5.363281 -23.035156 6.21875 -23.859375 C 7.082031 -24.679688 8.0625 -25.472656 9.15625 -26.234375 C 10.25 -27.003906 11.234375 -27.675781 12.109375 -28.25 C 12.992188 -28.820312 13.53125 -29.207031 13.71875 -29.40625 C 13.757812 -29.4375 13.921875 -29.53125 14.203125 -29.6875 C 14.492188 -29.84375 14.8125 -29.992188 15.15625 -30.140625 C 17.457031 -31.296875 19.320312 -31.976562 20.75 -32.1875 C 22.1875 -32.394531 23.316406 -32.375 24.140625 -32.125 C 24.960938 -31.875 25.578125 -31.59375 25.984375 -31.28125 C 26.390625 -30.976562 26.722656 -30.890625 26.984375 -31.015625 C 27.097656 -31.085938 27.460938 -31.378906 28.078125 -31.890625 C 28.691406 -32.410156 29.378906 -32.992188 30.140625 -33.640625 C 30.910156 -34.296875 31.5625 -34.796875 32.09375 -35.140625 C 32.863281 -34.753906 33.515625 -34.144531 34.046875 -33.3125 C 33.671875 -32.925781 33.085938 -32.394531 32.296875 -31.71875 C 31.515625 -31.050781 30.671875 -30.332031 29.765625 -29.5625 C 28.867188 -28.800781 28 -28.066406 27.15625 -27.359375 C 26.3125 -26.648438 25.613281 -26.066406 25.0625 -25.609375 C 24.507812 -25.148438 24.234375 -24.921875 24.234375 -24.921875 C 24.035156 -24.648438 23.742188 -24.320312 23.359375 -23.9375 C 22.984375 -23.5625 22.796875 -23.390625 22.796875 -23.421875 C 22.796875 -23.503906 22.832031 -23.617188 22.90625 -23.765625 C 22.988281 -23.921875 23.066406 -24.097656 23.140625 -24.296875 C 23.441406 -24.867188 23.515625 -25.101562 23.359375 -25 C 23.210938 -24.90625 23.023438 -24.703125 22.796875 -24.390625 C 22.566406 -24.085938 22.472656 -23.878906 22.515625 -23.765625 C 22.585938 -23.617188 22.566406 -23.546875 22.453125 -23.546875 C 22.335938 -23.546875 22.28125 -23.390625 22.28125 -23.078125 C 22.28125 -22.890625 22.222656 -22.738281 22.109375 -22.625 C 21.765625 -22.582031 21.46875 -22.582031 21.21875 -22.625 C 20.96875 -22.664062 20.84375 -22.703125 20.84375 -22.734375 C 20.800781 -23.234375 20.960938 -23.828125 21.328125 -24.515625 C 21.691406 -25.203125 22.148438 -25.878906 22.703125 -26.546875 C 23.265625 -27.222656 23.765625 -27.789062 24.203125 -28.25 C 24.640625 -28.707031 24.878906 -28.957031 24.921875 -29 C 25.222656 -29.226562 25.210938 -29.4375 24.890625 -29.625 C 24.566406 -29.820312 24.039062 -29.957031 23.3125 -30.03125 C 22.582031 -30.101562 21.804688 -30.117188 20.984375 -30.078125 C 20.160156 -30.046875 19.40625 -29.9375 18.71875 -29.75 C 17.875 -29.519531 17.394531 -29.441406 17.28125 -29.515625 C 17.164062 -29.585938 17.128906 -29.53125 17.171875 -29.34375 C 17.210938 -29.1875 17.078125 -29.035156 16.765625 -28.890625 C 16.378906 -28.773438 16.175781 -28.753906 16.15625 -28.828125 C 16.144531 -28.898438 15.984375 -28.878906 15.671875 -28.765625 C 15.410156 -28.691406 15.351562 -28.613281 15.5 -28.53125 C 15.695312 -28.414062 15.6875 -28.328125 15.46875 -28.265625 C 15.257812 -28.210938 15.15625 -28.242188 15.15625 -28.359375 C 15.15625 -28.472656 15.097656 -28.492188 14.984375 -28.421875 C 14.828125 -28.347656 14.796875 -28.253906 14.890625 -28.140625 C 14.992188 -28.023438 14.890625 -28.003906 14.578125 -28.078125 C 14.316406 -28.148438 14.070312 -28.082031 13.84375 -27.875 C 13.613281 -27.664062 13.441406 -27.523438 13.328125 -27.453125 L 14.1875 -27.625 C 14.144531 -27.582031 13.988281 -27.484375 13.71875 -27.328125 C 13.457031 -27.179688 13.304688 -27.164062 13.265625 -27.28125 C 13.222656 -27.351562 13.054688 -27.332031 12.765625 -27.21875 C 12.484375 -27.101562 12.363281 -26.96875 12.40625 -26.8125 C 12.476562 -26.664062 12.425781 -26.53125 12.25 -26.40625 C 12.082031 -26.289062 11.90625 -26.253906 11.71875 -26.296875 C 11.488281 -26.410156 11.410156 -26.375 11.484375 -26.1875 C 11.597656 -25.84375 11.332031 -25.671875 10.6875 -25.671875 C 10.53125 -25.671875 10.304688 -25.582031 10.015625 -25.40625 C 9.734375 -25.238281 9.609375 -25.113281 9.640625 -25.03125 C 9.796875 -24.769531 9.722656 -24.640625 9.421875 -24.640625 C 9.265625 -24.640625 9.148438 -24.539062 9.078125 -24.34375 C 8.992188 -24.113281 8.816406 -24.078125 8.546875 -24.234375 C 8.285156 -24.390625 8.210938 -24.3125 8.328125 -24 C 8.367188 -23.84375 8.347656 -23.785156 8.265625 -23.828125 C 8.191406 -23.898438 8.117188 -23.804688 8.046875 -23.546875 C 7.960938 -23.234375 7.988281 -23.113281 8.125 -23.1875 C 8.257812 -23.269531 8.429688 -23.382812 8.640625 -23.53125 C 8.847656 -23.6875 9.03125 -23.726562 9.1875 -23.65625 C 9.34375 -23.613281 9.25 -23.488281 8.90625 -23.28125 C 8.5625 -23.070312 8.273438 -22.851562 8.046875 -22.625 C 7.847656 -22.46875 7.625 -22.320312 7.375 -22.1875 C 7.125 -22.0625 7.019531 -21.898438 7.0625 -21.703125 C 7.132812 -21.515625 7.503906 -21.4375 8.171875 -21.46875 C 8.847656 -21.507812 9.664062 -21.539062 10.625 -21.5625 C 11.582031 -21.582031 12.484375 -21.457031 13.328125 -21.1875 C 14.660156 -20.769531 15.566406 -19.992188 16.046875 -18.859375 C 16.523438 -17.734375 16.660156 -16.472656 16.453125 -15.078125 C 16.242188 -13.679688 15.753906 -12.367188 14.984375 -11.140625 C 14.109375 -9.722656 13.332031 -8.8125 12.65625 -8.40625 C 11.988281 -8.007812 11.65625 -7.734375 11.65625 -7.578125 C 11.65625 -7.847656 11.769531 -8.144531 12 -8.46875 C 12.226562 -8.789062 12.425781 -9.101562 12.59375 -9.40625 C 12.769531 -9.71875 12.785156 -9.929688 12.640625 -10.046875 C 12.554688 -10.117188 12.472656 -10.097656 12.390625 -9.984375 C 12.316406 -9.867188 12.109375 -9.601562 11.765625 -9.1875 C 11.421875 -8.769531 10.8125 -8.097656 9.9375 -7.171875 C 9.25 -6.453125 8.78125 -5.910156 8.53125 -5.546875 C 8.28125 -5.179688 8.101562 -4.921875 8 -4.765625 C 7.90625 -4.609375 7.789062 -4.484375 7.65625 -4.390625 C 7.53125 -4.296875 7.253906 -4.132812 6.828125 -3.90625 C 6.253906 -3.632812 5.878906 -3.410156 5.703125 -3.234375 C 5.535156 -3.066406 5.441406 -2.953125 5.421875 -2.890625 C 5.398438 -2.835938 5.316406 -2.8125 5.171875 -2.8125 C 4.972656 -2.8125 4.769531 -2.707031 4.5625 -2.5 C 4.351562 -2.289062 3.921875 -2.015625 3.265625 -1.671875 C 2.578125 -1.285156 2.203125 -0.96875 2.140625 -0.71875 C 2.085938 -0.46875 1.945312 -0.34375 1.71875 -0.34375 C 1.53125 -0.34375 1.492188 -0.285156 1.609375 -0.171875 C 1.679688 -0.0546875 1.5 0.128906 1.0625 0.390625 C 0.625 0.660156 0.175781 0.910156 -0.28125 1.140625 C -0.738281 1.378906 -0.96875 1.535156 -0.96875 1.609375 C -0.96875 1.765625 -0.804688 1.773438 -0.484375 1.640625 C -0.160156 1.503906 0.148438 1.300781 0.453125 1.03125 C 0.648438 0.914062 0.84375 0.8125 1.03125 0.71875 C 1.226562 0.625 1.382812 0.578125 1.5 0.578125 C 1.800781 0.578125 2.125 0.429688 2.46875 0.140625 C 2.8125 -0.140625 3.269531 -0.4375 3.84375 -0.75 C 4.84375 -1.320312 5.703125 -1.960938 6.421875 -2.671875 C 7.148438 -3.378906 7.59375 -3.789062 7.75 -3.90625 C 7.75 -3.976562 7.773438 -4.023438 7.828125 -4.046875 C 7.890625 -4.066406 7.941406 -4.054688 7.984375 -4.015625 C 8.171875 -4.015625 8.3125 -4.0625 8.40625 -4.15625 C 8.507812 -4.257812 8.597656 -4.269531 8.671875 -4.1875 C 8.785156 -4.070312 8.617188 -3.800781 8.171875 -3.375 C 7.734375 -2.957031 7.113281 -2.460938 6.3125 -1.890625 C 5.507812 -1.316406 4.664062 -0.742188 3.78125 -0.171875 C 2.90625 0.398438 2.070312 0.914062 1.28125 1.375 C 0.5 1.832031 -0.0976562 2.140625 -0.515625 2.296875 C -1.203125 2.523438 -1.910156 2.734375 -2.640625 2.921875 C -3.367188 3.117188 -4.078125 2.988281 -4.765625 2.53125 Z M 22.390625 -31.015625 C 23.347656 -31.046875 23.757812 -31.097656 23.625 -31.171875 C 23.488281 -31.253906 23.101562 -31.304688 22.46875 -31.328125 C 21.84375 -31.347656 21.265625 -31.316406 20.734375 -31.234375 C 20.234375 -31.160156 20.179688 -31.09375 20.578125 -31.03125 C 20.984375 -30.976562 21.585938 -30.972656 22.390625 -31.015625 Z M 13.546875 -28.484375 C 13.546875 -28.367188 13.773438 -28.414062 14.234375 -28.625 C 14.703125 -28.832031 15.257812 -29.097656 15.90625 -29.421875 C 16.550781 -29.753906 17.148438 -30.039062 17.703125 -30.28125 C 18.265625 -30.53125 18.660156 -30.65625 18.890625 -30.65625 C 19.003906 -30.65625 19.1875 -30.710938 19.4375 -30.828125 C 19.6875 -30.953125 19.597656 -31.015625 19.171875 -31.015625 C 19.023438 -31.015625 18.65625 -30.894531 18.0625 -30.65625 C 17.46875 -30.425781 16.816406 -30.160156 16.109375 -29.859375 C 15.398438 -29.554688 14.796875 -29.269531 14.296875 -29 C 13.796875 -28.726562 13.546875 -28.554688 13.546875 -28.484375 Z M 12.578125 -27.796875 C 12.535156 -27.679688 12.597656 -27.660156 12.765625 -27.734375 C 12.941406 -27.804688 13.03125 -27.863281 13.03125 -27.90625 C 13.03125 -27.976562 12.972656 -27.992188 12.859375 -27.953125 C 12.742188 -27.921875 12.648438 -27.867188 12.578125 -27.796875 Z M 14.53125 -27.21875 C 14.1875 -26.945312 14.039062 -26.914062 14.09375 -27.125 C 14.15625 -27.34375 14.316406 -27.453125 14.578125 -27.453125 C 14.816406 -27.453125 14.800781 -27.375 14.53125 -27.21875 Z M 11.078125 -26.59375 C 11.191406 -26.59375 11.269531 -26.648438 11.3125 -26.765625 C 11.351562 -26.878906 11.351562 -26.9375 11.3125 -26.9375 C 11.15625 -26.9375 11.046875 -26.878906 10.984375 -26.765625 C 10.929688 -26.648438 10.960938 -26.59375 11.078125 -26.59375 Z M 9.875 -24.171875 C 9.875 -24.328125 10.035156 -24.507812 10.359375 -24.71875 C 10.691406 -24.925781 11.035156 -25.144531 11.390625 -25.375 C 11.753906 -25.601562 11.992188 -25.757812 12.109375 -25.84375 C 12.535156 -26.226562 12.851562 -26.425781 13.0625 -26.4375 C 13.269531 -26.457031 13.316406 -26.429688 13.203125 -26.359375 C 13.203125 -26.359375 13.03125 -26.222656 12.6875 -25.953125 C 12.34375 -25.679688 11.953125 -25.394531 11.515625 -25.09375 C 11.078125 -24.789062 10.691406 -24.539062 10.359375 -24.34375 C 10.035156 -24.15625 9.875 -24.097656 9.875 -24.171875 Z M 24.296875 -25.890625 C 24.597656 -25.972656 24.726562 -26.117188 24.6875 -26.328125 C 24.65625 -26.535156 24.484375 -26.46875 24.171875 -26.125 C 24.097656 -25.96875 24.0625 -25.878906 24.0625 -25.859375 C 24.0625 -25.847656 24.140625 -25.859375 24.296875 -25.890625 Z M 23.65625 -25.5 C 23.65625 -25.382812 23.722656 -25.34375 23.859375 -25.375 C 23.992188 -25.414062 24.0625 -25.457031 24.0625 -25.5 C 24.0625 -25.613281 23.992188 -25.671875 23.859375 -25.671875 C 23.722656 -25.671875 23.65625 -25.613281 23.65625 -25.5 Z M 8.4375 -24.8125 C 8.550781 -24.8125 8.628906 -24.867188 8.671875 -24.984375 C 8.710938 -25.097656 8.691406 -25.15625 8.609375 -25.15625 C 8.492188 -25.15625 8.398438 -25.097656 8.328125 -24.984375 C 8.253906 -24.867188 8.289062 -24.8125 8.4375 -24.8125 Z M 6.4375 -21.9375 C 6.550781 -21.9375 6.78125 -22.085938 7.125 -22.390625 C 7.46875 -22.703125 7.582031 -22.859375 7.46875 -22.859375 C 7.351562 -22.859375 7.113281 -22.710938 6.75 -22.421875 C 6.382812 -22.140625 6.28125 -21.976562 6.4375 -21.9375 Z M 12 -19.984375 C 12 -19.867188 12.113281 -19.8125 12.34375 -19.8125 C 12.570312 -19.8125 12.648438 -19.867188 12.578125 -19.984375 C 12.535156 -20.097656 12.425781 -20.144531 12.25 -20.125 C 12.082031 -20.101562 12 -20.054688 12 -19.984375 Z M 14.703125 -13.953125 C 14.890625 -13.679688 14.984375 -13.679688 14.984375 -13.953125 C 14.984375 -14.109375 14.925781 -14.164062 14.8125 -14.125 C 14.695312 -14.082031 14.660156 -14.023438 14.703125 -13.953125 Z M -3.328125 0.234375 C -3.171875 0.535156 -2.644531 0.539062 -1.75 0.25 C -0.851562 -0.03125 0.234375 -0.539062 1.515625 -1.28125 C 2.804688 -2.03125 4.128906 -2.898438 5.484375 -3.890625 C 6.835938 -4.890625 8.070312 -5.9375 9.1875 -7.03125 C 10.300781 -8.125 11.101562 -9.164062 11.59375 -10.15625 C 11.789062 -10.539062 11.765625 -10.769531 11.515625 -10.84375 C 11.265625 -10.925781 10.992188 -10.925781 10.703125 -10.84375 C 10.421875 -10.769531 10.257812 -10.660156 10.21875 -10.515625 C 10.175781 -10.472656 10.164062 -10.421875 10.1875 -10.359375 C 10.207031 -10.304688 10.125 -10.238281 9.9375 -10.15625 C 9.707031 -10.039062 9.457031 -9.945312 9.1875 -9.875 C 8.914062 -9.800781 8.664062 -9.707031 8.4375 -9.59375 C 8.289062 -9.550781 8.097656 -9.425781 7.859375 -9.21875 C 7.628906 -9.007812 7.441406 -8.921875 7.296875 -8.953125 C 7.210938 -8.992188 7.191406 -9.050781 7.234375 -9.125 C 7.273438 -9.207031 7.238281 -9.25 7.125 -9.25 C 7.082031 -9.25 7.003906 -9.191406 6.890625 -9.078125 C 6.816406 -9.035156 6.710938 -9.023438 6.578125 -9.046875 C 6.441406 -9.066406 6.445312 -9.160156 6.59375 -9.328125 C 6.75 -9.503906 7.210938 -9.765625 7.984375 -10.109375 C 8.671875 -10.410156 9.117188 -10.597656 9.328125 -10.671875 C 9.535156 -10.753906 9.640625 -10.773438 9.640625 -10.734375 C 9.640625 -10.703125 9.617188 -10.644531 9.578125 -10.5625 C 9.546875 -10.488281 9.609375 -10.453125 9.765625 -10.453125 C 9.953125 -10.453125 10.007812 -10.53125 9.9375 -10.6875 C 9.894531 -10.800781 10.054688 -10.921875 10.421875 -11.046875 C 10.785156 -11.179688 11.1875 -11.332031 11.625 -11.5 C 12.0625 -11.675781 12.378906 -11.863281 12.578125 -12.0625 C 12.847656 -12.289062 12.859375 -12.382812 12.609375 -12.34375 C 12.359375 -12.300781 12.175781 -12.265625 12.0625 -12.234375 C 11.144531 -12.003906 10.289062 -11.765625 9.5 -11.515625 C 8.71875 -11.265625 7.800781 -10.867188 6.75 -10.328125 C 5.695312 -9.796875 4.328125 -8.992188 2.640625 -7.921875 C 2.410156 -7.765625 2.007812 -7.421875 1.4375 -6.890625 C 0.863281 -6.359375 0.320312 -5.851562 -0.1875 -5.375 C -0.707031 -4.894531 -0.96875 -4.613281 -0.96875 -4.53125 C -0.96875 -4.414062 -0.785156 -4.460938 -0.421875 -4.671875 C -0.0664062 -4.890625 0.242188 -5.128906 0.515625 -5.390625 C 1.316406 -6.117188 2.148438 -6.757812 3.015625 -7.3125 C 3.878906 -7.875 4.597656 -8.316406 5.171875 -8.640625 C 5.742188 -8.960938 6.03125 -9.125 6.03125 -9.125 C 6.101562 -9.125 6.148438 -9.113281 6.171875 -9.09375 C 6.191406 -9.082031 6.222656 -9.054688 6.265625 -9.015625 C 6.609375 -8.898438 6.566406 -8.738281 6.140625 -8.53125 C 5.722656 -8.320312 4.878906 -7.773438 3.609375 -6.890625 C 2.347656 -6.003906 0.609375 -4.53125 -1.609375 -2.46875 C -1.765625 -2.3125 -1.992188 -2.050781 -2.296875 -1.6875 C -2.597656 -1.332031 -2.863281 -0.972656 -3.09375 -0.609375 C -3.332031 -0.242188 -3.410156 0.0351562 -3.328125 0.234375 Z M 10.859375 -10.515625 C 10.816406 -10.472656 10.707031 -10.46875 10.53125 -10.5 C 10.363281 -10.539062 10.394531 -10.5625 10.625 -10.5625 C 10.695312 -10.601562 10.757812 -10.613281 10.8125 -10.59375 C 10.875 -10.570312 10.890625 -10.546875 10.859375 -10.515625 Z M 10.28125 -6.203125 C 10.050781 -6.316406 10.050781 -6.375 10.28125 -6.375 C 10.46875 -6.375 10.65625 -6.570312 10.84375 -6.96875 C 11.039062 -7.375 11.195312 -7.484375 11.3125 -7.296875 C 11.539062 -6.953125 11.460938 -6.65625 11.078125 -6.40625 C 10.703125 -6.15625 10.4375 -6.085938 10.28125 -6.203125 Z M -2.875 1.4375 L -2.015625 1.265625 C -1.929688 1.265625 -1.878906 1.175781 -1.859375 1 C -1.847656 0.832031 -2.28125 0.882812 -3.15625 1.15625 C -3.582031 1.300781 -3.765625 1.398438 -3.703125 1.453125 C -3.648438 1.515625 -3.375 1.507812 -2.875 1.4375 Z M -2.875 1.4375 "/></g></g></g><g fill="#000000" fill-opacity="1"><g transform="translate(37.16407, 40.520202)"><g><path d="M -2.8125 -1.375 C -3 -1.375 -3.113281 -1.382812 -3.15625 -1.40625 C -3.195312 -1.425781 -3.351562 -1.6875 -3.625 -2.1875 C -4.226562 -3.40625 -4.195312 -4.78125 -3.53125 -6.3125 C -2.863281 -7.84375 -1.800781 -9.582031 -0.34375 -11.53125 C 1.113281 -13.488281 2.738281 -15.734375 4.53125 -18.265625 C 5.457031 -19.566406 6.195312 -20.578125 6.75 -21.296875 C 7.300781 -22.023438 7.757812 -22.617188 8.125 -23.078125 C 8.488281 -23.535156 8.84375 -23.957031 9.1875 -24.34375 C 8.570312 -24.34375 8.140625 -24.332031 7.890625 -24.3125 C 7.640625 -24.300781 7.3125 -24.273438 6.90625 -24.234375 C 6.507812 -24.191406 5.757812 -24.132812 4.65625 -24.0625 C 4.425781 -24.019531 4.316406 -24.066406 4.328125 -24.203125 C 4.347656 -24.335938 4.320312 -24.5 4.25 -24.6875 C 4.132812 -25.113281 4.085938 -25.375 4.109375 -25.46875 C 4.128906 -25.5625 4.234375 -25.664062 4.421875 -25.78125 C 5.566406 -25.820312 6.472656 -25.867188 7.140625 -25.921875 C 7.816406 -25.984375 8.410156 -26.050781 8.921875 -26.125 C 9.441406 -26.195312 10.007812 -26.253906 10.625 -26.296875 L 10.734375 -26.296875 L 11.71875 -27.328125 C 12.675781 -28.328125 13.429688 -29.101562 13.984375 -29.65625 C 14.535156 -30.207031 15.003906 -30.644531 15.390625 -30.96875 C 15.773438 -31.300781 16.15625 -31.601562 16.53125 -31.875 C 16.644531 -31.945312 16.757812 -32.019531 16.875 -32.09375 C 16.988281 -32.175781 17.109375 -32.234375 17.234375 -32.265625 C 17.265625 -32.191406 17.28125 -32.097656 17.28125 -31.984375 C 17.738281 -31.828125 18.238281 -31.882812 18.78125 -32.15625 C 18.894531 -31.851562 18.757812 -31.546875 18.375 -31.234375 C 18.21875 -31.117188 17.945312 -31.019531 17.5625 -30.9375 C 17.1875 -30.863281 16.863281 -30.675781 16.59375 -30.375 L 13.15625 -26.46875 C 13.070312 -26.351562 13.171875 -26.320312 13.453125 -26.375 C 13.742188 -26.4375 13.96875 -26.488281 14.125 -26.53125 C 14.238281 -26.570312 14.363281 -26.609375 14.5 -26.640625 C 14.632812 -26.679688 14.757812 -26.703125 14.875 -26.703125 C 15.0625 -26.703125 15.25 -26.679688 15.4375 -26.640625 C 15.632812 -26.609375 15.640625 -26.492188 15.453125 -26.296875 C 15.296875 -26.140625 15.082031 -26.070312 14.8125 -26.09375 C 14.539062 -26.113281 14.3125 -26.085938 14.125 -26.015625 C 13.851562 -25.972656 13.59375 -25.929688 13.34375 -25.890625 C 13.101562 -25.859375 12.847656 -25.820312 12.578125 -25.78125 L 11.484375 -25.609375 C 11.328125 -25.566406 11.171875 -25.515625 11.015625 -25.453125 C 10.867188 -25.398438 10.757812 -25.316406 10.6875 -25.203125 L 11.375 -25.203125 C 11.519531 -25.203125 11.660156 -25.210938 11.796875 -25.234375 C 11.929688 -25.253906 12.078125 -25.265625 12.234375 -25.265625 C 12.691406 -25.265625 13.128906 -25.300781 13.546875 -25.375 C 13.972656 -25.457031 14.394531 -25.535156 14.8125 -25.609375 L 16.140625 -25.78125 C 16.210938 -25.78125 16.304688 -25.796875 16.421875 -25.828125 C 16.535156 -25.867188 16.628906 -25.890625 16.703125 -25.890625 C 16.816406 -25.859375 16.898438 -25.8125 16.953125 -25.75 C 17.015625 -25.695312 17.109375 -25.628906 17.234375 -25.546875 L 17.453125 -25.546875 C 17.679688 -25.546875 17.910156 -25.535156 18.140625 -25.515625 C 18.367188 -25.503906 18.582031 -25.5 18.78125 -25.5 C 19.007812 -25.5 19.179688 -25.476562 19.296875 -25.4375 C 19.328125 -25.363281 19.269531 -25.285156 19.125 -25.203125 C 18.96875 -25.171875 18.789062 -25.15625 18.59375 -25.15625 C 18.40625 -25.15625 18.21875 -25.15625 18.03125 -25.15625 L 17.859375 -25.15625 C 17.515625 -25.113281 17.175781 -25.082031 16.84375 -25.0625 C 16.519531 -25.039062 16.1875 -24.972656 15.84375 -24.859375 C 15.3125 -24.710938 14.71875 -24.5625 14.0625 -24.40625 C 13.414062 -24.25 12.804688 -24.171875 12.234375 -24.171875 C 12.148438 -24.210938 12.050781 -24.234375 11.9375 -24.234375 C 11.820312 -24.234375 11.726562 -24.234375 11.65625 -24.234375 C 11.613281 -24.117188 11.5625 -24.007812 11.5 -23.90625 C 11.445312 -23.8125 11.382812 -23.726562 11.3125 -23.65625 C 10.625 -22.78125 9.953125 -21.878906 9.296875 -20.953125 C 8.648438 -20.035156 8 -19.140625 7.34375 -18.265625 C 7.269531 -18.148438 7.117188 -17.914062 6.890625 -17.5625 C 6.660156 -17.21875 6.421875 -16.894531 6.171875 -16.59375 C 5.921875 -16.289062 5.71875 -16.140625 5.5625 -16.140625 C 5.375 -16.140625 5.28125 -16.195312 5.28125 -16.3125 C 5.28125 -16.425781 5.335938 -16.484375 5.453125 -16.484375 C 5.609375 -16.484375 5.675781 -16.578125 5.65625 -16.765625 C 5.632812 -16.953125 5.722656 -17.066406 5.921875 -17.109375 C 6.148438 -17.191406 6.207031 -17.269531 6.09375 -17.34375 C 5.976562 -17.414062 5.765625 -17.4375 5.453125 -17.40625 C 5.179688 -17.363281 5.007812 -17.285156 4.9375 -17.171875 C 4.863281 -17.054688 4.941406 -17 5.171875 -17 C 5.242188 -17 5.257812 -16.976562 5.21875 -16.9375 C 5.1875 -16.894531 5.128906 -16.859375 5.046875 -16.828125 C 4.859375 -16.671875 4.820312 -16.515625 4.9375 -16.359375 C 5.050781 -16.242188 5.0625 -16.140625 4.96875 -16.046875 C 4.875 -15.953125 4.726562 -15.960938 4.53125 -16.078125 C 4.5 -16.117188 4.472656 -16.128906 4.453125 -16.109375 C 4.429688 -16.085938 4.441406 -16.039062 4.484375 -15.96875 C 4.554688 -15.851562 4.457031 -15.796875 4.1875 -15.796875 C 3.84375 -15.796875 3.785156 -15.738281 4.015625 -15.625 C 4.210938 -15.507812 4.234375 -15.394531 4.078125 -15.28125 C 3.890625 -15.164062 3.796875 -15 3.796875 -14.78125 C 3.796875 -14.570312 3.601562 -14.390625 3.21875 -14.234375 C 2.90625 -14.085938 2.75 -13.898438 2.75 -13.671875 C 2.75 -13.441406 2.691406 -13.34375 2.578125 -13.375 C 2.460938 -13.457031 2.359375 -13.429688 2.265625 -13.296875 C 2.171875 -13.160156 2.203125 -13.128906 2.359375 -13.203125 C 2.546875 -13.285156 2.628906 -13.269531 2.609375 -13.15625 C 2.585938 -13.039062 2.65625 -12.984375 2.8125 -12.984375 C 2.96875 -12.984375 3.207031 -13.132812 3.53125 -13.4375 C 3.851562 -13.738281 3.976562 -13.929688 3.90625 -14.015625 C 3.90625 -14.085938 4 -14.125 4.1875 -14.125 C 4.382812 -14.164062 4.484375 -14.15625 4.484375 -14.09375 C 4.484375 -14.039062 4.40625 -13.898438 4.25 -13.671875 C 4.019531 -13.359375 3.753906 -13.050781 3.453125 -12.75 C 2.679688 -11.976562 2.238281 -11.441406 2.125 -11.140625 C 2.050781 -10.953125 1.9375 -10.859375 1.78125 -10.859375 C 1.59375 -10.859375 1.535156 -10.78125 1.609375 -10.625 C 1.679688 -10.46875 1.625 -10.285156 1.4375 -10.078125 C 1.25 -9.867188 1.09375 -9.800781 0.96875 -9.875 C 0.820312 -9.988281 0.882812 -10.125 1.15625 -10.28125 C 1.382812 -10.4375 1.441406 -10.585938 1.328125 -10.734375 C 1.210938 -10.890625 1.210938 -11.023438 1.328125 -11.140625 C 1.472656 -11.296875 1.453125 -11.375 1.265625 -11.375 C 1.066406 -11.375 0.96875 -11.257812 0.96875 -11.03125 C 0.96875 -10.832031 0.894531 -10.695312 0.75 -10.625 C 0.632812 -10.507812 0.578125 -10.53125 0.578125 -10.6875 C 0.578125 -10.832031 0.519531 -10.847656 0.40625 -10.734375 C 0.25 -10.703125 0.25 -10.644531 0.40625 -10.5625 C 0.519531 -10.53125 0.578125 -10.425781 0.578125 -10.25 C 0.578125 -10.070312 0.519531 -9.984375 0.40625 -9.984375 C 0.320312 -9.984375 0.207031 -9.832031 0.0625 -9.53125 C -0.132812 -9.257812 -0.304688 -9.125 -0.453125 -9.125 C -0.648438 -9.125 -0.804688 -8.835938 -0.921875 -8.265625 C -0.992188 -7.878906 -1.03125 -7.671875 -1.03125 -7.640625 C -1.03125 -7.484375 -1.222656 -7.441406 -1.609375 -7.515625 C -1.722656 -7.515625 -1.78125 -7.457031 -1.78125 -7.34375 C -1.78125 -7.195312 -1.710938 -7.128906 -1.578125 -7.140625 C -1.441406 -7.160156 -1.53125 -6.960938 -1.84375 -6.546875 C -2.1875 -6.046875 -2.347656 -5.695312 -2.328125 -5.5 C -2.304688 -5.3125 -2.101562 -5.375 -1.71875 -5.6875 C -1.488281 -5.875 -1.34375 -5.9375 -1.28125 -5.875 C -1.226562 -5.820312 -1.316406 -5.644531 -1.546875 -5.34375 C -2.046875 -4.726562 -2.367188 -4.191406 -2.515625 -3.734375 C -2.671875 -3.273438 -2.789062 -2.988281 -2.875 -2.875 C -2.945312 -2.757812 -2.894531 -2.703125 -2.71875 -2.703125 C -2.550781 -2.703125 -2.429688 -2.644531 -2.359375 -2.53125 C -2.273438 -2.375 -2.300781 -2.140625 -2.4375 -1.828125 C -2.570312 -1.523438 -2.695312 -1.375 -2.8125 -1.375 Z M 9.296875 -25.265625 C 9.453125 -25.222656 9.585938 -25.222656 9.703125 -25.265625 C 9.773438 -25.335938 9.832031 -25.375 9.875 -25.375 C 9.945312 -25.375 10.003906 -25.394531 10.046875 -25.4375 C 10.160156 -25.4375 10.179688 -25.472656 10.109375 -25.546875 C 9.835938 -25.546875 9.625 -25.53125 9.46875 -25.5 L 9.53125 -25.546875 C 9.375 -25.429688 9.164062 -25.375 8.90625 -25.375 C 8.863281 -25.375 8.800781 -25.382812 8.71875 -25.40625 C 8.644531 -25.425781 8.59375 -25.398438 8.5625 -25.328125 C 8.675781 -25.328125 8.796875 -25.316406 8.921875 -25.296875 C 9.054688 -25.273438 9.179688 -25.265625 9.296875 -25.265625 Z M 6.203125 -18.4375 C 6.203125 -18.320312 6.328125 -18.253906 6.578125 -18.234375 C 6.828125 -18.210938 6.910156 -18.28125 6.828125 -18.4375 C 6.753906 -18.550781 6.628906 -18.609375 6.453125 -18.609375 C 6.285156 -18.609375 6.203125 -18.550781 6.203125 -18.4375 Z M 4.703125 -15.21875 C 4.554688 -15.375 4.632812 -15.429688 4.9375 -15.390625 C 5.207031 -15.390625 5.285156 -15.332031 5.171875 -15.21875 C 5.015625 -15.0625 4.859375 -15.0625 4.703125 -15.21875 Z M 4.25 -14.8125 C 4.363281 -14.96875 4.476562 -15.054688 4.59375 -15.078125 C 4.707031 -15.097656 4.765625 -15.050781 4.765625 -14.9375 C 4.722656 -14.582031 4.566406 -14.40625 4.296875 -14.40625 C 4.035156 -14.40625 4.019531 -14.539062 4.25 -14.8125 Z M 0.859375 -12.515625 C 0.898438 -12.472656 1.050781 -12.613281 1.3125 -12.9375 C 1.582031 -13.269531 1.71875 -13.492188 1.71875 -13.609375 C 1.71875 -13.796875 1.640625 -13.796875 1.484375 -13.609375 C 1.335938 -13.421875 1.1875 -13.203125 1.03125 -12.953125 C 0.875 -12.703125 0.816406 -12.554688 0.859375 -12.515625 Z M 2.015625 -11.9375 C 2.390625 -11.90625 2.578125 -12.019531 2.578125 -12.28125 C 2.578125 -12.550781 2.519531 -12.664062 2.40625 -12.625 C 2.289062 -12.59375 2.195312 -12.597656 2.125 -12.640625 C 1.96875 -12.785156 1.851562 -12.800781 1.78125 -12.6875 C 1.707031 -12.570312 1.742188 -12.476562 1.890625 -12.40625 C 2.046875 -12.320312 2.007812 -12.28125 1.78125 -12.28125 C 1.507812 -12.28125 1.410156 -12.234375 1.484375 -12.140625 C 1.566406 -12.046875 1.742188 -11.976562 2.015625 -11.9375 Z M -0.453125 -10.734375 C -0.222656 -10.929688 -0.00390625 -11.203125 0.203125 -11.546875 C 0.410156 -11.890625 0.53125 -12.132812 0.5625 -12.28125 C 0.601562 -12.4375 0.472656 -12.285156 0.171875 -11.828125 C -0.210938 -11.296875 -0.453125 -10.941406 -0.546875 -10.765625 C -0.640625 -10.597656 -0.609375 -10.585938 -0.453125 -10.734375 Z M 0.40625 -8.734375 C 0.320312 -8.734375 0.28125 -8.847656 0.28125 -9.078125 C 0.28125 -9.304688 0.320312 -9.457031 0.40625 -9.53125 C 0.476562 -9.601562 0.5625 -9.628906 0.65625 -9.609375 C 0.75 -9.597656 0.796875 -9.550781 0.796875 -9.46875 C 0.796875 -9.320312 0.75 -9.160156 0.65625 -8.984375 C 0.5625 -8.816406 0.476562 -8.734375 0.40625 -8.734375 Z M -1.546875 -6.140625 C -1.703125 -6.179688 -1.6875 -6.296875 -1.5 -6.484375 C -1.226562 -6.710938 -1.003906 -7.054688 -0.828125 -7.515625 C -0.660156 -7.984375 -0.460938 -8.289062 -0.234375 -8.4375 C -0.078125 -8.519531 0.078125 -8.5625 0.234375 -8.5625 C 0.421875 -8.5625 0.421875 -8.460938 0.234375 -8.265625 C 0.117188 -8.117188 -0.0507812 -7.863281 -0.28125 -7.5 C -0.507812 -7.132812 -0.726562 -6.804688 -0.9375 -6.515625 C -1.15625 -6.234375 -1.359375 -6.109375 -1.546875 -6.140625 Z M -1.546875 -6.140625 "/></g></g></g><g fill="#000000" fill-opacity="1"><g transform="translate(42.676339, 40.520202)"><g><path d="M 2.296875 -8.328125 C 1.492188 -8.054688 0.898438 -8.113281 0.515625 -8.5 C 0.128906 -8.882812 -0.0507812 -9.4375 -0.03125 -10.15625 C -0.0078125 -10.882812 0.171875 -11.695312 0.515625 -12.59375 C 0.859375 -13.5 1.316406 -14.335938 1.890625 -15.109375 C 3.503906 -17.210938 4.796875 -18.796875 5.765625 -19.859375 C 6.742188 -20.929688 7.488281 -21.640625 8 -21.984375 C 8.519531 -22.335938 8.914062 -22.484375 9.1875 -22.421875 C 9.457031 -22.367188 9.675781 -22.242188 9.84375 -22.046875 C 10.019531 -21.859375 10.242188 -21.785156 10.515625 -21.828125 C 10.703125 -21.828125 10.976562 -21.691406 11.34375 -21.421875 C 11.707031 -21.148438 11.925781 -20.878906 12 -20.609375 C 12.1875 -20.117188 12.117188 -19.582031 11.796875 -19 C 11.472656 -18.425781 11.175781 -17.929688 10.90625 -17.515625 C 10.71875 -17.203125 10.523438 -16.84375 10.328125 -16.4375 C 10.140625 -16.039062 9.929688 -15.65625 9.703125 -15.28125 C 10.816406 -15.351562 11.984375 -15.664062 13.203125 -16.21875 C 14.429688 -16.769531 15.46875 -17.238281 16.3125 -17.625 C 16.425781 -17.707031 16.644531 -17.84375 16.96875 -18.03125 C 17.289062 -18.21875 17.566406 -18.296875 17.796875 -18.265625 C 17.910156 -18.265625 17.988281 -18.207031 18.03125 -18.09375 C 18.144531 -17.863281 17.988281 -17.59375 17.5625 -17.28125 C 17.144531 -16.976562 16.859375 -16.785156 16.703125 -16.703125 C 15.710938 -16.054688 14.632812 -15.367188 13.46875 -14.640625 C 12.300781 -13.910156 11.101562 -13.472656 9.875 -13.328125 C 9.53125 -13.285156 9.1875 -13.289062 8.84375 -13.34375 C 8.5 -13.40625 8.171875 -13.472656 7.859375 -13.546875 C 7.597656 -13.242188 7.179688 -12.71875 6.609375 -11.96875 C 6.035156 -11.226562 5.375 -10.503906 4.625 -9.796875 C 3.875 -9.085938 3.097656 -8.597656 2.296875 -8.328125 Z M 7.578125 -15.84375 C 7.765625 -15.925781 7.992188 -16.15625 8.265625 -16.53125 C 8.535156 -16.914062 8.992188 -17.585938 9.640625 -18.546875 C 10.179688 -19.316406 10.421875 -19.765625 10.359375 -19.890625 C 10.304688 -20.023438 10.097656 -19.957031 9.734375 -19.6875 C 9.367188 -19.425781 8.9375 -19.046875 8.4375 -18.546875 C 7.9375 -18.046875 7.476562 -17.507812 7.0625 -16.9375 C 7.0625 -16.550781 7.234375 -16.1875 7.578125 -15.84375 Z M 11.59375 -18.890625 C 11.675781 -18.960938 11.660156 -19.007812 11.546875 -19.03125 C 11.429688 -19.050781 11.375 -19.003906 11.375 -18.890625 C 11.375 -18.703125 11.445312 -18.703125 11.59375 -18.890625 Z M 10.390625 -17 L 10.515625 -17.28125 C 10.546875 -17.476562 10.425781 -17.5 10.15625 -17.34375 C 9.894531 -17.226562 9.765625 -17.128906 9.765625 -17.046875 C 9.765625 -17.046875 9.859375 -17.023438 10.046875 -16.984375 C 10.242188 -16.953125 10.359375 -16.957031 10.390625 -17 Z M 1.953125 -10.453125 C 2.222656 -10.492188 2.601562 -10.710938 3.09375 -11.109375 C 3.59375 -11.515625 4.082031 -11.957031 4.5625 -12.4375 C 5.039062 -12.914062 5.375 -13.25 5.5625 -13.4375 C 5.832031 -13.738281 5.976562 -13.9375 6 -14.03125 C 6.019531 -14.132812 5.953125 -14.375 5.796875 -14.75 C 5.453125 -15.101562 5.28125 -15.488281 5.28125 -15.90625 C 5.207031 -16.019531 4.945312 -15.796875 4.5 -15.234375 C 4.0625 -14.679688 3.601562 -14.03125 3.125 -13.28125 C 2.644531 -12.539062 2.269531 -11.882812 2 -11.3125 C 1.738281 -10.738281 1.722656 -10.453125 1.953125 -10.453125 Z M 8.84375 -15.453125 C 8.882812 -15.453125 8.976562 -15.523438 9.125 -15.671875 C 9.28125 -15.828125 9.265625 -15.90625 9.078125 -15.90625 C 8.921875 -15.945312 8.832031 -15.890625 8.8125 -15.734375 C 8.789062 -15.578125 8.800781 -15.484375 8.84375 -15.453125 Z M 8.328125 -14.875 C 8.398438 -14.988281 8.347656 -15.054688 8.171875 -15.078125 C 8.003906 -15.097656 7.941406 -15.050781 7.984375 -14.9375 C 8.054688 -14.738281 8.171875 -14.71875 8.328125 -14.875 Z M 7.171875 -14.015625 C 7.328125 -14.242188 7.359375 -14.359375 7.265625 -14.359375 C 7.171875 -14.359375 7.082031 -14.28125 7 -14.125 C 6.882812 -13.9375 6.851562 -13.832031 6.90625 -13.8125 C 6.96875 -13.789062 7.054688 -13.859375 7.171875 -14.015625 Z M 5.34375 -11.765625 C 5.488281 -11.804688 5.503906 -11.90625 5.390625 -12.0625 C 5.359375 -12.132812 5.34375 -12.179688 5.34375 -12.203125 C 5.34375 -12.222656 5.414062 -12.210938 5.5625 -12.171875 C 5.832031 -12.054688 6.050781 -12.207031 6.21875 -12.625 C 6.394531 -13.050781 6.617188 -13.300781 6.890625 -13.375 C 7.078125 -13.414062 7.101562 -13.484375 6.96875 -13.578125 C 6.84375 -13.671875 6.644531 -13.738281 6.375 -13.78125 C 6.1875 -13.820312 6.109375 -13.707031 6.140625 -13.4375 C 6.253906 -13.132812 6.253906 -12.988281 6.140625 -13 C 6.023438 -13.019531 5.863281 -13.019531 5.65625 -13 C 5.445312 -12.988281 5.226562 -12.734375 5 -12.234375 C 4.726562 -11.773438 4.84375 -11.617188 5.34375 -11.765625 Z M 2.234375 -9.875 C 2.460938 -9.832031 2.644531 -9.957031 2.78125 -10.25 C 2.914062 -10.539062 2.789062 -10.507812 2.40625 -10.15625 C 2.21875 -9.96875 2.160156 -9.875 2.234375 -9.875 Z M 3.734375 -10.21875 C 3.921875 -10.21875 3.945312 -10.253906 3.8125 -10.328125 C 3.6875 -10.410156 3.582031 -10.414062 3.5 -10.34375 C 3.425781 -10.257812 3.503906 -10.21875 3.734375 -10.21875 Z M 2.921875 -9.53125 C 3.078125 -9.71875 3.125 -9.835938 3.0625 -9.890625 C 3.007812 -9.953125 2.90625 -9.910156 2.75 -9.765625 C 2.601562 -9.609375 2.554688 -9.488281 2.609375 -9.40625 C 2.671875 -9.332031 2.773438 -9.375 2.921875 -9.53125 Z M 2.921875 -9.53125 "/></g></g></g><g fill="#000000" fill-opacity="1"><g transform="translate(56.112484, 40.520202)"><g><path d="M -0.578125 -11.65625 C -0.347656 -12.1875 0.109375 -12.851562 0.796875 -13.65625 C 1.492188 -14.46875 2.300781 -15.3125 3.21875 -16.1875 C 4.132812 -17.070312 5.03125 -17.90625 5.90625 -18.6875 C 6.789062 -19.476562 7.546875 -20.109375 8.171875 -20.578125 C 8.804688 -21.054688 9.203125 -21.296875 9.359375 -21.296875 C 9.585938 -21.335938 9.710938 -21.335938 9.734375 -21.296875 C 9.753906 -21.265625 9.828125 -21.25 9.953125 -21.25 C 10.085938 -21.25 10.445312 -21.285156 11.03125 -21.359375 C 11.21875 -21.398438 11.328125 -21.367188 11.359375 -21.265625 C 11.398438 -21.171875 11.328125 -21.066406 11.140625 -20.953125 C 10.753906 -20.722656 10.207031 -20.335938 9.5 -19.796875 C 8.789062 -19.265625 8.128906 -18.734375 7.515625 -18.203125 C 6.910156 -17.671875 6.566406 -17.285156 6.484375 -17.046875 C 6.453125 -16.898438 6.425781 -16.738281 6.40625 -16.5625 C 6.382812 -16.394531 6.316406 -16.253906 6.203125 -16.140625 C 6.203125 -16.140625 5.960938 -15.9375 5.484375 -15.53125 C 5.003906 -15.132812 4.515625 -14.742188 4.015625 -14.359375 C 3.515625 -13.972656 3.226562 -13.757812 3.15625 -13.71875 C 2.96875 -13.644531 2.832031 -13.597656 2.75 -13.578125 C 2.675781 -13.554688 2.601562 -13.453125 2.53125 -13.265625 C 2.375 -12.691406 2.140625 -12.316406 1.828125 -12.140625 C 1.523438 -11.972656 1.316406 -11.734375 1.203125 -11.421875 C 1.085938 -11.078125 1.296875 -11 1.828125 -11.1875 C 2.367188 -11.382812 3.039062 -11.710938 3.84375 -12.171875 C 4.644531 -12.628906 5.425781 -13.109375 6.1875 -13.609375 C 6.957031 -14.109375 7.5 -14.472656 7.8125 -14.703125 C 9.53125 -16.003906 10.820312 -17.046875 11.6875 -17.828125 C 12.550781 -18.609375 13.179688 -19.179688 13.578125 -19.546875 C 13.984375 -19.910156 14.375 -20.054688 14.75 -19.984375 C 15.132812 -19.941406 15.234375 -19.804688 15.046875 -19.578125 C 14.890625 -19.421875 14.832031 -19.3125 14.875 -19.25 C 14.914062 -19.195312 15.007812 -19.113281 15.15625 -19 C 15.351562 -18.882812 15.457031 -18.796875 15.46875 -18.734375 C 15.488281 -18.679688 15.441406 -18.5625 15.328125 -18.375 C 15.097656 -18.101562 15.003906 -17.921875 15.046875 -17.828125 C 15.085938 -17.734375 14.875 -17.378906 14.40625 -16.765625 C 13.945312 -16.191406 13.726562 -15.828125 13.75 -15.671875 C 13.769531 -15.523438 13.664062 -15.394531 13.4375 -15.28125 C 13.164062 -15.195312 12.984375 -15.007812 12.890625 -14.71875 C 12.796875 -14.4375 12.691406 -14.296875 12.578125 -14.296875 C 12.535156 -14.296875 12.503906 -14.253906 12.484375 -14.171875 C 12.460938 -14.097656 12.347656 -13.878906 12.140625 -13.515625 C 11.929688 -13.160156 11.460938 -12.519531 10.734375 -11.59375 C 10.660156 -11.476562 10.441406 -11.21875 10.078125 -10.8125 C 9.710938 -10.414062 9.328125 -9.976562 8.921875 -9.5 C 8.523438 -9.019531 8.234375 -8.59375 8.046875 -8.21875 C 7.847656 -7.832031 7.566406 -7.457031 7.203125 -7.09375 C 6.835938 -6.726562 6.710938 -6.46875 6.828125 -6.3125 C 6.910156 -6.195312 7.054688 -6.21875 7.265625 -6.375 C 7.472656 -6.53125 7.578125 -6.53125 7.578125 -6.375 C 7.617188 -6.101562 7.539062 -5.910156 7.34375 -5.796875 C 7.15625 -5.679688 6.96875 -5.585938 6.78125 -5.515625 C 6.164062 -5.242188 5.816406 -5.007812 5.734375 -4.8125 C 5.660156 -4.625 5.703125 -4.570312 5.859375 -4.65625 L 6.375 -4.9375 C 6.488281 -4.75 6.441406 -4.625 6.234375 -4.5625 C 6.023438 -4.507812 5.707031 -4.359375 5.28125 -4.109375 C 4.863281 -3.859375 4.367188 -3.367188 3.796875 -2.640625 C 3.597656 -2.367188 3.171875 -1.859375 2.515625 -1.109375 C 1.867188 -0.367188 1.113281 0.492188 0.25 1.484375 C -0.601562 2.484375 -1.476562 3.488281 -2.375 4.5 C -3.28125 5.519531 -4.097656 6.429688 -4.828125 7.234375 C -5.554688 8.035156 -6.109375 8.59375 -6.484375 8.90625 C -6.828125 9.207031 -7.125 9.335938 -7.375 9.296875 C -7.625 9.265625 -7.769531 9.054688 -7.8125 8.671875 C -7.8125 8.328125 -7.890625 8.15625 -8.046875 8.15625 C -8.078125 8.113281 -7.851562 7.660156 -7.375 6.796875 C -6.894531 5.941406 -6.1875 4.863281 -5.25 3.5625 C -4.3125 2.257812 -3.203125 0.957031 -1.921875 -0.34375 C -0.640625 -1.644531 0.765625 -2.753906 2.296875 -3.671875 C 2.640625 -3.867188 3.144531 -4.359375 3.8125 -5.140625 C 4.488281 -5.921875 5.195312 -6.828125 5.9375 -7.859375 C 6.6875 -8.898438 7.40625 -9.914062 8.09375 -10.90625 C 8.78125 -11.90625 9.34375 -12.738281 9.78125 -13.40625 C 10.226562 -14.070312 10.429688 -14.40625 10.390625 -14.40625 C 10.390625 -14.445312 10.285156 -14.390625 10.078125 -14.234375 C 9.867188 -14.085938 9.609375 -13.878906 9.296875 -13.609375 C 8.804688 -13.222656 8.15625 -12.769531 7.34375 -12.25 C 6.539062 -11.738281 5.695312 -11.242188 4.8125 -10.765625 C 3.9375 -10.285156 3.132812 -9.890625 2.40625 -9.578125 C 1.6875 -9.273438 1.171875 -9.109375 0.859375 -9.078125 C 0.285156 -9.035156 -0.160156 -9.300781 -0.484375 -9.875 C -0.804688 -10.445312 -0.835938 -11.039062 -0.578125 -11.65625 Z M 11.59375 -13.546875 C 11.5625 -13.703125 11.488281 -13.734375 11.375 -13.640625 C 11.257812 -13.546875 11.144531 -13.398438 11.03125 -13.203125 C 10.832031 -12.859375 10.78125 -12.707031 10.875 -12.75 C 10.976562 -12.789062 11.125 -12.90625 11.3125 -13.09375 C 11.5 -13.28125 11.59375 -13.429688 11.59375 -13.546875 Z M 9.875 -11.078125 C 9.945312 -11.191406 9.925781 -11.25 9.8125 -11.25 C 9.695312 -11.25 9.601562 -11.191406 9.53125 -11.078125 C 9.457031 -10.929688 9.484375 -10.863281 9.609375 -10.875 C 9.742188 -10.894531 9.832031 -10.960938 9.875 -11.078125 Z M 5.171875 -5.5625 C 5.171875 -5.6875 5.015625 -5.613281 4.703125 -5.34375 C 4.515625 -5.144531 4.457031 -5.066406 4.53125 -5.109375 C 4.613281 -5.148438 4.738281 -5.226562 4.90625 -5.34375 C 5.082031 -5.457031 5.171875 -5.53125 5.171875 -5.5625 Z M 3.21875 -2.46875 C 3.21875 -2.695312 3.128906 -2.753906 2.953125 -2.640625 C 2.785156 -2.523438 2.601562 -2.367188 2.40625 -2.171875 C 2.21875 -1.984375 2.085938 -1.890625 2.015625 -1.890625 C 1.972656 -1.890625 1.894531 -1.832031 1.78125 -1.71875 C 1.664062 -1.601562 1.53125 -1.472656 1.375 -1.328125 C 1.03125 -0.941406 0.789062 -0.738281 0.65625 -0.71875 C 0.519531 -0.695312 0.492188 -0.648438 0.578125 -0.578125 C 0.648438 -0.492188 0.582031 -0.347656 0.375 -0.140625 C 0.164062 0.0664062 0.0195312 0.132812 -0.0625 0.0625 C -0.175781 -0.0195312 -0.203125 0.0703125 -0.140625 0.34375 C -0.0859375 0.613281 -0.175781 0.75 -0.40625 0.75 C -0.550781 0.75 -0.609375 0.804688 -0.578125 0.921875 C -0.492188 0.953125 -0.625 1.171875 -0.96875 1.578125 C -1.320312 1.984375 -1.695312 2.382812 -2.09375 2.78125 C -2.5 3.1875 -2.757812 3.390625 -2.875 3.390625 C -3.0625 3.429688 -3.15625 3.507812 -3.15625 3.625 C -3.15625 3.738281 -3.078125 3.773438 -2.921875 3.734375 C -2.773438 3.734375 -2.863281 3.882812 -3.1875 4.1875 C -3.507812 4.5 -3.769531 4.632812 -3.96875 4.59375 C -4.113281 4.550781 -4.128906 4.570312 -4.015625 4.65625 C -3.785156 4.769531 -3.84375 4.957031 -4.1875 5.21875 C -4.570312 5.570312 -4.695312 5.738281 -4.5625 5.71875 C -4.425781 5.695312 -4.1875 5.570312 -3.84375 5.34375 C -3.5 5.113281 -3.171875 4.875 -2.859375 4.625 C -2.554688 4.375 -2.425781 4.210938 -2.46875 4.140625 C -2.507812 3.984375 -2.394531 3.835938 -2.125 3.703125 C -1.851562 3.566406 -1.738281 3.421875 -1.78125 3.265625 C -1.78125 3.191406 -1.675781 3.019531 -1.46875 2.75 C -1.257812 2.488281 -1.046875 2.242188 -0.828125 2.015625 C -0.617188 1.785156 -0.492188 1.6875 -0.453125 1.71875 C -0.421875 1.757812 -0.296875 1.65625 -0.078125 1.40625 C 0.128906 1.15625 0.234375 0.992188 0.234375 0.921875 C 0.234375 0.804688 0.507812 0.453125 1.0625 -0.140625 C 1.613281 -0.734375 2.082031 -1.257812 2.46875 -1.71875 C 2.851562 -2.21875 3.070312 -2.425781 3.125 -2.34375 C 3.1875 -2.269531 3.21875 -2.3125 3.21875 -2.46875 Z M -0.6875 0.40625 C -0.6875 0.09375 -1.015625 0.242188 -1.671875 0.859375 C -2.046875 1.242188 -2.328125 1.539062 -2.515625 1.75 C -2.710938 1.957031 -3.097656 2.445312 -3.671875 3.21875 C -4.285156 4.019531 -4.570312 4.445312 -4.53125 4.5 C -4.5 4.5625 -4.289062 4.410156 -3.90625 4.046875 C -3.519531 3.679688 -3.078125 3.222656 -2.578125 2.671875 C -2.085938 2.117188 -1.648438 1.609375 -1.265625 1.140625 C -0.878906 0.679688 -0.6875 0.4375 -0.6875 0.40625 Z M -4.421875 6.265625 C -4.421875 6.066406 -4.503906 5.976562 -4.671875 6 C -4.847656 6.019531 -5.03125 6.144531 -5.21875 6.375 C -5.375 6.644531 -5.519531 6.738281 -5.65625 6.65625 C -5.789062 6.582031 -5.820312 6.625 -5.75 6.78125 C -5.625 6.894531 -5.640625 6.953125 -5.796875 6.953125 C -5.953125 6.953125 -5.992188 6.988281 -5.921875 7.0625 C -5.835938 7.132812 -5.707031 7.09375 -5.53125 6.9375 C -5.363281 6.789062 -5.28125 6.753906 -5.28125 6.828125 C -5.238281 6.910156 -5.101562 6.796875 -4.875 6.484375 C -4.644531 6.179688 -4.570312 6.125 -4.65625 6.3125 C -4.726562 6.46875 -4.695312 6.535156 -4.5625 6.515625 C -4.425781 6.492188 -4.378906 6.410156 -4.421875 6.265625 Z M -4.421875 6.265625 "/></g></g></g><g fill="#000000" fill-opacity="1"><g transform="translate(69.318954, 40.520202)"><g><path d="M 8.328125 -8.328125 C 8.097656 -8.398438 7.882812 -8.570312 7.6875 -8.84375 C 7.34375 -9.375 7.285156 -9.859375 7.515625 -10.296875 C 7.742188 -10.742188 7.976562 -11.175781 8.21875 -11.59375 C 8.445312 -12.019531 8.675781 -12.441406 8.90625 -12.859375 C 9.132812 -13.285156 9.378906 -13.6875 9.640625 -14.0625 C 9.953125 -14.488281 10.050781 -14.691406 9.9375 -14.671875 C 9.820312 -14.648438 9.378906 -14.390625 8.609375 -13.890625 C 7.191406 -12.972656 6.117188 -12.242188 5.390625 -11.703125 C 4.671875 -11.171875 4.144531 -10.757812 3.8125 -10.46875 C 3.488281 -10.1875 3.210938 -9.957031 2.984375 -9.78125 C 2.753906 -9.613281 2.390625 -9.4375 1.890625 -9.25 C 1.429688 -9.09375 0.972656 -9.140625 0.515625 -9.390625 C 0.0546875 -9.640625 -0.113281 -10.070312 0 -10.6875 C 0.113281 -11.144531 0.457031 -11.898438 1.03125 -12.953125 C 1.601562 -14.003906 2.332031 -14.988281 3.21875 -15.90625 C 3.632812 -16.363281 4.253906 -16.945312 5.078125 -17.65625 C 5.898438 -18.363281 6.789062 -19.0625 7.75 -19.75 C 8.707031 -20.4375 9.65625 -21.019531 10.59375 -21.5 C 11.53125 -21.976562 12.34375 -22.21875 13.03125 -22.21875 C 13.71875 -22.21875 14.195312 -21.875 14.46875 -21.1875 C 14.625 -20.726562 14.816406 -20.554688 15.046875 -20.671875 C 15.273438 -20.785156 15.445312 -20.804688 15.5625 -20.734375 C 15.789062 -20.535156 15.789062 -20.175781 15.5625 -19.65625 C 15.332031 -19.144531 14.988281 -18.601562 14.53125 -18.03125 C 14.070312 -17.457031 13.640625 -16.96875 13.234375 -16.5625 C 12.835938 -16.164062 12.578125 -15.96875 12.453125 -15.96875 C 12.304688 -15.96875 12.25 -15.820312 12.28125 -15.53125 C 12.320312 -15.25 12.226562 -15.109375 12 -15.109375 C 11.769531 -15.109375 11.703125 -15.03125 11.796875 -14.875 C 11.890625 -14.71875 11.820312 -14.546875 11.59375 -14.359375 C 11.21875 -14.085938 11.09375 -13.882812 11.21875 -13.75 C 11.351562 -13.613281 11.234375 -13.488281 10.859375 -13.375 C 10.585938 -13.34375 10.53125 -13.269531 10.6875 -13.15625 C 10.832031 -13.039062 10.695312 -12.882812 10.28125 -12.6875 C 9.96875 -12.53125 9.753906 -12.375 9.640625 -12.21875 C 9.523438 -12.070312 9.601562 -12.035156 9.875 -12.109375 C 10.0625 -12.191406 10.15625 -12.210938 10.15625 -12.171875 C 10.15625 -11.941406 10.039062 -11.75 9.8125 -11.59375 C 9.582031 -11.445312 9.488281 -11.257812 9.53125 -11.03125 C 9.757812 -10.988281 9.988281 -11.023438 10.21875 -11.140625 C 10.445312 -11.253906 10.875 -11.492188 11.5 -11.859375 C 12.132812 -12.222656 13.125 -12.804688 14.46875 -13.609375 C 15.8125 -14.410156 17.707031 -15.484375 20.15625 -16.828125 L 21.703125 -17.6875 C 21.898438 -17.757812 22.117188 -17.878906 22.359375 -18.046875 C 22.609375 -18.222656 22.867188 -18.296875 23.140625 -18.265625 C 23.253906 -18.265625 23.3125 -18.207031 23.3125 -18.09375 C 23.46875 -17.863281 23.332031 -17.59375 22.90625 -17.28125 C 22.488281 -16.976562 22.203125 -16.785156 22.046875 -16.703125 C 20.441406 -15.671875 19.265625 -14.914062 18.515625 -14.4375 C 17.773438 -13.957031 17.269531 -13.628906 17 -13.453125 C 16.726562 -13.285156 16.523438 -13.171875 16.390625 -13.109375 C 16.253906 -13.054688 16.015625 -12.914062 15.671875 -12.6875 C 15.328125 -12.457031 14.6875 -12.046875 13.75 -11.453125 C 12.8125 -10.859375 11.382812 -9.953125 9.46875 -8.734375 C 9.320312 -8.617188 9.140625 -8.507812 8.921875 -8.40625 C 8.710938 -8.3125 8.515625 -8.285156 8.328125 -8.328125 Z M 2.984375 -11.65625 C 4.171875 -12.34375 5.300781 -13.109375 6.375 -13.953125 C 7.445312 -14.796875 8.554688 -15.597656 9.703125 -16.359375 C 10.960938 -17.285156 11.84375 -18.09375 12.34375 -18.78125 C 12.84375 -19.46875 13.117188 -20.007812 13.171875 -20.40625 C 13.234375 -20.8125 13.207031 -21.035156 13.09375 -21.078125 C 12.976562 -21.109375 12.679688 -21.007812 12.203125 -20.78125 C 11.722656 -20.550781 11.203125 -20.273438 10.640625 -19.953125 C 10.085938 -19.628906 9.601562 -19.320312 9.1875 -19.03125 C 8.769531 -18.75 8.5625 -18.550781 8.5625 -18.4375 C 8.5625 -18.351562 8.40625 -18.238281 8.09375 -18.09375 C 7.820312 -17.976562 7.445312 -17.738281 6.96875 -17.375 C 6.5 -17.007812 6.265625 -16.75 6.265625 -16.59375 C 6.265625 -16.4375 6.144531 -16.265625 5.90625 -16.078125 C 5.675781 -15.890625 5.503906 -15.8125 5.390625 -15.84375 C 5.316406 -15.925781 5.164062 -15.851562 4.9375 -15.625 C 4.707031 -15.394531 4.628906 -15.238281 4.703125 -15.15625 C 4.816406 -15.039062 4.785156 -14.925781 4.609375 -14.8125 C 4.441406 -14.695312 4.265625 -14.660156 4.078125 -14.703125 C 3.804688 -14.773438 3.75 -14.71875 3.90625 -14.53125 C 4.09375 -14.300781 4.117188 -14.203125 3.984375 -14.234375 C 3.859375 -14.273438 3.753906 -14.160156 3.671875 -13.890625 C 3.597656 -13.628906 3.4375 -13.382812 3.1875 -13.15625 C 2.9375 -12.925781 2.71875 -12.675781 2.53125 -12.40625 C 2.332031 -12.175781 2.257812 -11.925781 2.3125 -11.65625 C 2.375 -11.382812 2.597656 -11.382812 2.984375 -11.65625 Z M 8.953125 -11.828125 C 8.992188 -11.785156 9.050781 -11.863281 9.125 -12.0625 C 9.164062 -12.132812 9.234375 -12.226562 9.328125 -12.34375 C 9.421875 -12.457031 9.453125 -12.535156 9.421875 -12.578125 C 9.378906 -12.648438 9.3125 -12.65625 9.21875 -12.59375 C 9.125 -12.539062 9.054688 -12.476562 9.015625 -12.40625 C 8.972656 -12.363281 8.953125 -12.300781 8.953125 -12.21875 C 8.953125 -12.144531 8.953125 -12.070312 8.953125 -12 C 8.953125 -11.882812 8.953125 -11.828125 8.953125 -11.828125 Z M 8.390625 -10.859375 C 8.578125 -10.859375 8.6875 -10.972656 8.71875 -11.203125 C 8.757812 -11.429688 8.648438 -11.390625 8.390625 -11.078125 C 8.234375 -10.929688 8.234375 -10.859375 8.390625 -10.859375 Z M 8.390625 -10.859375 "/></g></g></g><g fill="#000000" fill-opacity="1"><g transform="translate(86.946714, 40.520202)"><g><path d="M 10.453125 -5.453125 C 10.335938 -5.378906 10.171875 -5.390625 9.953125 -5.484375 C 9.742188 -5.578125 9.660156 -5.679688 9.703125 -5.796875 C 9.703125 -5.910156 9.609375 -6.023438 9.421875 -6.140625 C 9.265625 -6.296875 9.1875 -6.441406 9.1875 -6.578125 C 9.1875 -6.710938 9.242188 -7.023438 9.359375 -7.515625 C 9.546875 -8.585938 10.019531 -9.753906 10.78125 -11.015625 C 11.550781 -12.285156 12.414062 -13.53125 13.375 -14.75 C 14.332031 -15.976562 15.210938 -17.070312 16.015625 -18.03125 C 16.828125 -18.988281 17.394531 -19.707031 17.71875 -20.1875 C 18.039062 -20.664062 17.953125 -20.789062 17.453125 -20.5625 C 17.179688 -20.40625 17.015625 -20.363281 16.953125 -20.4375 C 16.898438 -20.519531 16.78125 -20.460938 16.59375 -20.265625 C 16.363281 -20.035156 16.191406 -19.921875 16.078125 -19.921875 C 15.921875 -19.921875 15.601562 -19.765625 15.125 -19.453125 C 14.644531 -19.148438 14.367188 -18.960938 14.296875 -18.890625 C 14.253906 -18.734375 14.175781 -18.675781 14.0625 -18.71875 C 13.945312 -18.757812 13.644531 -18.585938 13.15625 -18.203125 C 12.8125 -17.859375 12.519531 -17.6875 12.28125 -17.6875 C 12.25 -17.6875 12.203125 -17.664062 12.140625 -17.625 C 12.085938 -17.59375 12.078125 -17.554688 12.109375 -17.515625 C 12.109375 -17.441406 11.898438 -17.285156 11.484375 -17.046875 C 11.097656 -16.898438 10.90625 -16.769531 10.90625 -16.65625 C 10.90625 -16.539062 10.832031 -16.484375 10.6875 -16.484375 C 10.601562 -16.484375 10.367188 -16.328125 9.984375 -16.015625 C 9.609375 -15.710938 9.179688 -15.367188 8.703125 -14.984375 C 8.222656 -14.597656 7.769531 -14.273438 7.34375 -14.015625 C 6.46875 -13.398438 5.632812 -12.738281 4.84375 -12.03125 C 4.0625 -11.320312 3.269531 -10.601562 2.46875 -9.875 C 2.238281 -9.6875 2.125 -9.539062 2.125 -9.4375 C 2.125 -9.34375 2.085938 -9.222656 2.015625 -9.078125 C 1.929688 -8.878906 1.742188 -8.835938 1.453125 -8.953125 C 1.171875 -9.066406 0.894531 -9.226562 0.625 -9.4375 C 0.363281 -9.65625 0.191406 -9.820312 0.109375 -9.9375 C -0.117188 -10.394531 -0.0625 -10.878906 0.28125 -11.390625 C 0.625 -11.910156 0.894531 -12.34375 1.09375 -12.6875 C 1.96875 -14.03125 2.875 -15.34375 3.8125 -16.625 C 4.75 -17.90625 5.738281 -19.140625 6.78125 -20.328125 C 7.082031 -20.628906 7.359375 -20.984375 7.609375 -21.390625 C 7.859375 -21.796875 8.210938 -22.035156 8.671875 -22.109375 C 8.742188 -21.878906 8.914062 -21.722656 9.1875 -21.640625 C 9.457031 -21.566406 9.664062 -21.609375 9.8125 -21.765625 C 10.007812 -21.492188 9.78125 -21.082031 9.125 -20.53125 C 8.476562 -19.976562 7.882812 -19.144531 7.34375 -18.03125 C 7.15625 -17.644531 6.890625 -17.269531 6.546875 -16.90625 C 6.203125 -16.539062 5.875 -16.171875 5.5625 -15.796875 C 5.488281 -15.679688 5.347656 -15.515625 5.140625 -15.296875 C 4.929688 -15.085938 4.84375 -14.90625 4.875 -14.75 C 4.957031 -14.445312 5.125 -14.390625 5.375 -14.578125 C 5.625 -14.773438 5.820312 -14.929688 5.96875 -15.046875 C 6.507812 -15.578125 7.101562 -16.035156 7.75 -16.421875 C 8.40625 -16.804688 9.035156 -17.226562 9.640625 -17.6875 C 10.484375 -18.300781 11.398438 -18.960938 12.390625 -19.671875 C 13.390625 -20.378906 14.4375 -21.007812 15.53125 -21.5625 C 16.625 -22.113281 17.707031 -22.429688 18.78125 -22.515625 C 19.195312 -22.546875 19.484375 -22.523438 19.640625 -22.453125 C 19.796875 -22.378906 19.773438 -22.285156 19.578125 -22.171875 C 19.421875 -22.054688 19.40625 -21.921875 19.53125 -21.765625 C 19.945312 -21.304688 20.066406 -20.953125 19.890625 -20.703125 C 19.722656 -20.453125 19.5625 -20.117188 19.40625 -19.703125 C 19.25 -19.273438 19.113281 -19.0625 19 -19.0625 C 18.925781 -19.0625 18.945312 -19.003906 19.0625 -18.890625 C 19.175781 -18.847656 19.210938 -18.769531 19.171875 -18.65625 C 19.140625 -18.539062 19.023438 -18.332031 18.828125 -18.03125 C 18.367188 -17.34375 17.925781 -16.796875 17.5 -16.390625 C 17.082031 -15.992188 16.644531 -15.390625 16.1875 -14.578125 C 15.8125 -13.929688 15.523438 -13.515625 15.328125 -13.328125 C 15.296875 -13.285156 15.078125 -12.984375 14.671875 -12.421875 C 14.265625 -11.867188 13.789062 -11.203125 13.25 -10.421875 C 12.71875 -9.640625 12.222656 -8.851562 11.765625 -8.0625 C 11.304688 -7.28125 10.984375 -6.625 10.796875 -6.09375 C 10.679688 -5.78125 10.566406 -5.566406 10.453125 -5.453125 Z M 12.8125 -19.0625 C 12.226562 -18.71875 12.082031 -18.5625 12.375 -18.59375 C 12.664062 -18.632812 13.113281 -18.847656 13.71875 -19.234375 L 14.9375 -19.921875 C 15.007812 -19.960938 15.273438 -20.109375 15.734375 -20.359375 C 16.191406 -20.609375 16.660156 -20.851562 17.140625 -21.09375 C 17.617188 -21.34375 17.953125 -21.46875 18.140625 -21.46875 C 18.222656 -21.507812 18.328125 -21.554688 18.453125 -21.609375 C 18.585938 -21.671875 18.695312 -21.742188 18.78125 -21.828125 C 18.96875 -21.941406 19.050781 -22.015625 19.03125 -22.046875 C 19.007812 -22.085938 18.867188 -22.085938 18.609375 -22.046875 C 18.148438 -22.015625 17.523438 -21.796875 16.734375 -21.390625 C 15.953125 -20.984375 15.1875 -20.550781 14.4375 -20.09375 C 13.695312 -19.632812 13.15625 -19.289062 12.8125 -19.0625 Z M 11.71875 -18.09375 C 11.832031 -18.050781 11.945312 -18.066406 12.0625 -18.140625 C 12.175781 -18.222656 12.191406 -18.300781 12.109375 -18.375 C 11.960938 -18.5625 11.820312 -18.578125 11.6875 -18.421875 C 11.550781 -18.273438 11.5625 -18.164062 11.71875 -18.09375 Z M 16.359375 -16.828125 C 16.441406 -17.054688 16.429688 -17.179688 16.328125 -17.203125 C 16.234375 -17.222656 16.148438 -17.132812 16.078125 -16.9375 C 15.921875 -16.632812 15.921875 -16.5 16.078125 -16.53125 C 16.234375 -16.570312 16.328125 -16.671875 16.359375 -16.828125 Z M 14.40625 -14.640625 C 14.445312 -14.484375 14.523438 -14.429688 14.640625 -14.484375 C 14.753906 -14.546875 14.851562 -14.695312 14.9375 -14.9375 C 15.082031 -15.28125 15.191406 -15.441406 15.265625 -15.421875 C 15.347656 -15.398438 15.484375 -15.5625 15.671875 -15.90625 C 15.828125 -16.207031 15.847656 -16.359375 15.734375 -16.359375 C 15.691406 -16.359375 15.554688 -16.222656 15.328125 -15.953125 C 15.097656 -15.691406 14.882812 -15.425781 14.6875 -15.15625 C 14.5 -14.882812 14.40625 -14.710938 14.40625 -14.640625 Z M 13.15625 -12.6875 C 13.300781 -12.914062 13.300781 -12.992188 13.15625 -12.921875 C 12.925781 -12.921875 12.816406 -12.804688 12.828125 -12.578125 C 12.847656 -12.347656 12.957031 -12.382812 13.15625 -12.6875 Z M 13.15625 -12.6875 "/></g></g></g><g fill="#000000" fill-opacity="1"><g transform="translate(104.000286, 40.520202)"><g><path d="M 2.296875 -8.328125 C 1.492188 -8.054688 0.898438 -8.113281 0.515625 -8.5 C 0.128906 -8.882812 -0.0507812 -9.4375 -0.03125 -10.15625 C -0.0078125 -10.882812 0.171875 -11.695312 0.515625 -12.59375 C 0.859375 -13.5 1.316406 -14.335938 1.890625 -15.109375 C 3.503906 -17.210938 4.796875 -18.796875 5.765625 -19.859375 C 6.742188 -20.929688 7.488281 -21.640625 8 -21.984375 C 8.519531 -22.335938 8.914062 -22.484375 9.1875 -22.421875 C 9.457031 -22.367188 9.675781 -22.242188 9.84375 -22.046875 C 10.019531 -21.859375 10.242188 -21.785156 10.515625 -21.828125 C 10.703125 -21.828125 10.976562 -21.691406 11.34375 -21.421875 C 11.707031 -21.148438 11.925781 -20.878906 12 -20.609375 C 12.1875 -20.117188 12.117188 -19.582031 11.796875 -19 C 11.472656 -18.425781 11.175781 -17.929688 10.90625 -17.515625 C 10.71875 -17.203125 10.523438 -16.84375 10.328125 -16.4375 C 10.140625 -16.039062 9.929688 -15.65625 9.703125 -15.28125 C 10.816406 -15.351562 11.984375 -15.664062 13.203125 -16.21875 C 14.429688 -16.769531 15.46875 -17.238281 16.3125 -17.625 C 16.425781 -17.707031 16.644531 -17.84375 16.96875 -18.03125 C 17.289062 -18.21875 17.566406 -18.296875 17.796875 -18.265625 C 17.910156 -18.265625 17.988281 -18.207031 18.03125 -18.09375 C 18.144531 -17.863281 17.988281 -17.59375 17.5625 -17.28125 C 17.144531 -16.976562 16.859375 -16.785156 16.703125 -16.703125 C 15.710938 -16.054688 14.632812 -15.367188 13.46875 -14.640625 C 12.300781 -13.910156 11.101562 -13.472656 9.875 -13.328125 C 9.53125 -13.285156 9.1875 -13.289062 8.84375 -13.34375 C 8.5 -13.40625 8.171875 -13.472656 7.859375 -13.546875 C 7.597656 -13.242188 7.179688 -12.71875 6.609375 -11.96875 C 6.035156 -11.226562 5.375 -10.503906 4.625 -9.796875 C 3.875 -9.085938 3.097656 -8.597656 2.296875 -8.328125 Z M 7.578125 -15.84375 C 7.765625 -15.925781 7.992188 -16.15625 8.265625 -16.53125 C 8.535156 -16.914062 8.992188 -17.585938 9.640625 -18.546875 C 10.179688 -19.316406 10.421875 -19.765625 10.359375 -19.890625 C 10.304688 -20.023438 10.097656 -19.957031 9.734375 -19.6875 C 9.367188 -19.425781 8.9375 -19.046875 8.4375 -18.546875 C 7.9375 -18.046875 7.476562 -17.507812 7.0625 -16.9375 C 7.0625 -16.550781 7.234375 -16.1875 7.578125 -15.84375 Z M 11.59375 -18.890625 C 11.675781 -18.960938 11.660156 -19.007812 11.546875 -19.03125 C 11.429688 -19.050781 11.375 -19.003906 11.375 -18.890625 C 11.375 -18.703125 11.445312 -18.703125 11.59375 -18.890625 Z M 10.390625 -17 L 10.515625 -17.28125 C 10.546875 -17.476562 10.425781 -17.5 10.15625 -17.34375 C 9.894531 -17.226562 9.765625 -17.128906 9.765625 -17.046875 C 9.765625 -17.046875 9.859375 -17.023438 10.046875 -16.984375 C 10.242188 -16.953125 10.359375 -16.957031 10.390625 -17 Z M 1.953125 -10.453125 C 2.222656 -10.492188 2.601562 -10.710938 3.09375 -11.109375 C 3.59375 -11.515625 4.082031 -11.957031 4.5625 -12.4375 C 5.039062 -12.914062 5.375 -13.25 5.5625 -13.4375 C 5.832031 -13.738281 5.976562 -13.9375 6 -14.03125 C 6.019531 -14.132812 5.953125 -14.375 5.796875 -14.75 C 5.453125 -15.101562 5.28125 -15.488281 5.28125 -15.90625 C 5.207031 -16.019531 4.945312 -15.796875 4.5 -15.234375 C 4.0625 -14.679688 3.601562 -14.03125 3.125 -13.28125 C 2.644531 -12.539062 2.269531 -11.882812 2 -11.3125 C 1.738281 -10.738281 1.722656 -10.453125 1.953125 -10.453125 Z M 8.84375 -15.453125 C 8.882812 -15.453125 8.976562 -15.523438 9.125 -15.671875 C 9.28125 -15.828125 9.265625 -15.90625 9.078125 -15.90625 C 8.921875 -15.945312 8.832031 -15.890625 8.8125 -15.734375 C 8.789062 -15.578125 8.800781 -15.484375 8.84375 -15.453125 Z M 8.328125 -14.875 C 8.398438 -14.988281 8.347656 -15.054688 8.171875 -15.078125 C 8.003906 -15.097656 7.941406 -15.050781 7.984375 -14.9375 C 8.054688 -14.738281 8.171875 -14.71875 8.328125 -14.875 Z M 7.171875 -14.015625 C 7.328125 -14.242188 7.359375 -14.359375 7.265625 -14.359375 C 7.171875 -14.359375 7.082031 -14.28125 7 -14.125 C 6.882812 -13.9375 6.851562 -13.832031 6.90625 -13.8125 C 6.96875 -13.789062 7.054688 -13.859375 7.171875 -14.015625 Z M 5.34375 -11.765625 C 5.488281 -11.804688 5.503906 -11.90625 5.390625 -12.0625 C 5.359375 -12.132812 5.34375 -12.179688 5.34375 -12.203125 C 5.34375 -12.222656 5.414062 -12.210938 5.5625 -12.171875 C 5.832031 -12.054688 6.050781 -12.207031 6.21875 -12.625 C 6.394531 -13.050781 6.617188 -13.300781 6.890625 -13.375 C 7.078125 -13.414062 7.101562 -13.484375 6.96875 -13.578125 C 6.84375 -13.671875 6.644531 -13.738281 6.375 -13.78125 C 6.1875 -13.820312 6.109375 -13.707031 6.140625 -13.4375 C 6.253906 -13.132812 6.253906 -12.988281 6.140625 -13 C 6.023438 -13.019531 5.863281 -13.019531 5.65625 -13 C 5.445312 -12.988281 5.226562 -12.734375 5 -12.234375 C 4.726562 -11.773438 4.84375 -11.617188 5.34375 -11.765625 Z M 2.234375 -9.875 C 2.460938 -9.832031 2.644531 -9.957031 2.78125 -10.25 C 2.914062 -10.539062 2.789062 -10.507812 2.40625 -10.15625 C 2.21875 -9.96875 2.160156 -9.875 2.234375 -9.875 Z M 3.734375 -10.21875 C 3.921875 -10.21875 3.945312 -10.253906 3.8125 -10.328125 C 3.6875 -10.410156 3.582031 -10.414062 3.5 -10.34375 C 3.425781 -10.257812 3.503906 -10.21875 3.734375 -10.21875 Z M 2.921875 -9.53125 C 3.078125 -9.71875 3.125 -9.835938 3.0625 -9.890625 C 3.007812 -9.953125 2.90625 -9.910156 2.75 -9.765625 C 2.601562 -9.609375 2.554688 -9.488281 2.609375 -9.40625 C 2.671875 -9.332031 2.773438 -9.375 2.921875 -9.53125 Z M 2.921875 -9.53125 "/></g></g></g><g fill="#000000" fill-opacity="1"><g transform="translate(117.43643, 40.520202)"><g><path d="M 0.796875 -9.1875 C 0.648438 -9.71875 0.453125 -10.109375 0.203125 -10.359375 C -0.046875 -10.609375 -0.078125 -10.984375 0.109375 -11.484375 C 0.265625 -11.898438 0.4375 -12.289062 0.625 -12.65625 C 0.820312 -13.019531 1.015625 -13.394531 1.203125 -13.78125 L 3.796875 -18.546875 C 4.210938 -19.273438 4.582031 -19.9375 4.90625 -20.53125 C 5.226562 -21.125 5.429688 -21.476562 5.515625 -21.59375 C 5.742188 -21.894531 5.859375 -22.085938 5.859375 -22.171875 C 5.859375 -22.285156 5.972656 -22.503906 6.203125 -22.828125 C 6.429688 -23.148438 6.625 -23.390625 6.78125 -23.546875 C 7.082031 -23.773438 7.382812 -23.789062 7.6875 -23.59375 C 8 -23.40625 8.210938 -23.160156 8.328125 -22.859375 C 8.441406 -22.398438 8.363281 -22.117188 8.09375 -22.015625 C 7.820312 -21.921875 7.515625 -21.78125 7.171875 -21.59375 C 6.984375 -21.507812 6.867188 -21.410156 6.828125 -21.296875 C 6.753906 -21.148438 6.773438 -21.019531 6.890625 -20.90625 C 6.734375 -20.90625 6.617188 -20.847656 6.546875 -20.734375 C 6.472656 -20.617188 6.394531 -20.503906 6.3125 -20.390625 C 6.28125 -20.234375 6.265625 -20.085938 6.265625 -19.953125 C 6.265625 -19.816406 6.265625 -19.675781 6.265625 -19.53125 C 6.222656 -19.144531 6.054688 -18.757812 5.765625 -18.375 C 5.484375 -17.988281 5.242188 -17.609375 5.046875 -17.234375 L 3.84375 -14.9375 C 3.613281 -14.664062 3.554688 -14.472656 3.671875 -14.359375 C 3.671875 -14.316406 3.84375 -14.410156 4.1875 -14.640625 C 4.53125 -14.867188 4.921875 -15.132812 5.359375 -15.4375 C 5.804688 -15.75 6.203125 -16.035156 6.546875 -16.296875 C 6.890625 -16.566406 7.0625 -16.722656 7.0625 -16.765625 C 7.0625 -16.804688 7.28125 -16.976562 7.71875 -17.28125 C 8.164062 -17.59375 8.691406 -17.945312 9.296875 -18.34375 C 9.910156 -18.75 10.484375 -19.125 11.015625 -19.46875 C 11.554688 -19.8125 11.90625 -20.019531 12.0625 -20.09375 C 12.9375 -20.550781 13.640625 -20.90625 14.171875 -21.15625 C 14.710938 -21.40625 15.441406 -21.628906 16.359375 -21.828125 C 16.628906 -21.898438 16.859375 -21.9375 17.046875 -21.9375 C 17.242188 -21.9375 17.34375 -21.898438 17.34375 -21.828125 C 17.34375 -21.742188 17.378906 -21.679688 17.453125 -21.640625 C 18.023438 -21.453125 17.601562 -21.070312 16.1875 -20.5 C 13.507812 -19.5 11.1875 -18.164062 9.21875 -16.5 C 7.25 -14.84375 5.25 -13.054688 3.21875 -11.140625 C 2.832031 -10.796875 2.445312 -10.453125 2.0625 -10.109375 C 1.6875 -9.765625 1.265625 -9.457031 0.796875 -9.1875 Z M 15.046875 -20.5625 C 15.160156 -20.519531 15.425781 -20.570312 15.84375 -20.71875 C 16.269531 -20.875 16.484375 -20.992188 16.484375 -21.078125 C 16.515625 -21.148438 16.472656 -21.1875 16.359375 -21.1875 C 16.242188 -21.1875 16 -21.148438 15.625 -21.078125 C 15.46875 -21.035156 15.320312 -20.984375 15.1875 -20.921875 C 15.050781 -20.867188 14.984375 -20.804688 14.984375 -20.734375 C 14.984375 -20.617188 15.003906 -20.5625 15.046875 -20.5625 Z M 10.625 -18.4375 C 10.582031 -18.394531 10.628906 -18.390625 10.765625 -18.421875 C 10.898438 -18.460938 11.046875 -18.523438 11.203125 -18.609375 L 12.234375 -19.0625 C 12.765625 -19.289062 13.28125 -19.546875 13.78125 -19.828125 C 14.28125 -20.117188 14.546875 -20.304688 14.578125 -20.390625 C 14.578125 -20.578125 14.539062 -20.671875 14.46875 -20.671875 C 14.394531 -20.671875 14.15625 -20.570312 13.75 -20.375 C 13.351562 -20.1875 12.914062 -19.945312 12.4375 -19.65625 C 11.957031 -19.375 11.535156 -19.117188 11.171875 -18.890625 C 10.804688 -18.660156 10.625 -18.507812 10.625 -18.4375 Z M 10.625 -18.4375 "/></g></g></g><g fill="#000000" fill-opacity="1"><g transform="translate(127.600838, 40.520202)"><g/></g></g><g fill="#000000" fill-opacity="1"><g transform="translate(67.169639, 43.462235)"><g><path d="M 7.859375 -0.59375 C 6.734375 -0.09375 5.738281 0.15625 4.875 0.15625 C 3.53125 0.15625 2.484375 -0.207031 1.734375 -0.9375 C 0.992188 -1.664062 0.625 -2.707031 0.625 -4.0625 C 0.625 -5.363281 1.003906 -6.390625 1.765625 -7.140625 C 2.523438 -7.890625 3.5625 -8.265625 4.875 -8.265625 C 5.851562 -8.265625 6.84375 -8.019531 7.84375 -7.53125 L 7.84375 -6.25 L 7.75 -6.25 C 6.820312 -6.976562 5.804688 -7.34375 4.703125 -7.34375 C 3.796875 -7.34375 3.078125 -7.050781 2.546875 -6.46875 C 2.015625 -5.882812 1.75 -5.09375 1.75 -4.09375 C 1.75 -3.050781 2.019531 -2.238281 2.5625 -1.65625 C 3.113281 -1.070312 3.867188 -0.78125 4.828125 -0.78125 C 5.523438 -0.78125 6.175781 -0.898438 6.78125 -1.140625 L 6.78125 -3.125 L 4.609375 -3.125 L 4.609375 -4.078125 L 7.859375 -4.078125 Z M 7.859375 -0.59375 "/></g></g></g><g fill="#000000" fill-opacity="1"><g transform="translate(75.810489, 43.462235)"><g><path d="M 7.203125 -3.25 C 7.203125 -0.96875 6.160156 0.171875 4.078125 0.171875 C 2.003906 0.171875 0.96875 -0.96875 0.96875 -3.25 L 0.96875 -8.109375 L 2.046875 -8.109375 L 2.046875 -3.203125 C 2.046875 -2.679688 2.097656 -2.25 2.203125 -1.90625 C 2.316406 -1.5625 2.523438 -1.28125 2.828125 -1.0625 C 3.140625 -0.851562 3.554688 -0.75 4.078125 -0.75 C 4.734375 -0.75 5.238281 -0.929688 5.59375 -1.296875 C 5.945312 -1.660156 6.125 -2.285156 6.125 -3.171875 L 6.125 -8.109375 L 7.203125 -8.109375 Z M 7.203125 -3.25 "/></g></g></g><g fill="#000000" fill-opacity="1"><g transform="translate(83.967059, 43.462235)"><g><path d="M 3.953125 0 L 0.75 0 L 0.75 -0.828125 L 1.8125 -0.828125 L 1.8125 -7.28125 L 0.75 -7.28125 L 0.75 -8.109375 L 3.953125 -8.109375 L 3.953125 -7.28125 L 2.890625 -7.28125 L 2.890625 -0.828125 L 3.953125 -0.828125 Z M 3.953125 0 "/></g></g></g><g fill="#000000" fill-opacity="1"><g transform="translate(88.657496, 43.462235)"><g><path d="M 6.875 -7.15625 L 3.984375 -7.15625 L 3.984375 0 L 2.890625 0 L 2.890625 -7.15625 L 0 -7.15625 L 0 -8.109375 L 6.875 -8.109375 Z M 6.875 -7.15625 "/></g></g></g><g fill="#000000" fill-opacity="1"><g transform="translate(95.524469, 43.462235)"><g><path d="M 7.484375 0 L 6.328125 0 L 5.546875 -2.265625 L 2.03125 -2.265625 L 1.234375 0 L 0.140625 0 L 3.09375 -8.109375 L 4.53125 -8.109375 Z M 5.203125 -3.1875 L 3.78125 -7.171875 L 2.359375 -3.1875 Z M 5.203125 -3.1875 "/></g></g></g><g fill="#000000" fill-opacity="1"><g transform="translate(103.142347, 43.462235)"><g><path d="M 7.796875 0 L 6.40625 0 L 3.6875 -3.21875 L 2.171875 -3.21875 L 2.171875 0 L 1.09375 0 L 1.09375 -8.109375 L 3.359375 -8.109375 C 4.460938 -8.109375 5.242188 -7.910156 5.703125 -7.515625 C 6.171875 -7.117188 6.40625 -6.582031 6.40625 -5.90625 C 6.40625 -4.769531 5.851562 -3.984375 4.75 -3.546875 Z M 2.171875 -7.1875 L 2.171875 -4.125 L 3.25 -4.125 C 3.988281 -4.125 4.507812 -4.269531 4.8125 -4.5625 C 5.125 -4.851562 5.28125 -5.273438 5.28125 -5.828125 C 5.28125 -6.734375 4.664062 -7.1875 3.4375 -7.1875 Z M 2.171875 -7.1875 "/></g></g></g><g fill="#000000" fill-opacity="1"><g transform="translate(110.890817, 43.462235)"><g><path d="M 0.734375 -0.5 L 0.734375 -1.859375 L 0.8125 -1.859375 C 1.207031 -1.515625 1.675781 -1.25 2.21875 -1.0625 C 2.757812 -0.875 3.269531 -0.78125 3.75 -0.78125 C 4.414062 -0.78125 4.929688 -0.90625 5.296875 -1.15625 C 5.671875 -1.40625 5.859375 -1.738281 5.859375 -2.15625 C 5.859375 -2.625 5.707031 -2.945312 5.40625 -3.125 C 5.101562 -3.300781 4.601562 -3.4375 3.90625 -3.53125 C 3.082031 -3.65625 2.472656 -3.796875 2.078125 -3.953125 C 1.691406 -4.117188 1.378906 -4.359375 1.140625 -4.671875 C 0.898438 -4.992188 0.78125 -5.414062 0.78125 -5.9375 C 0.78125 -6.613281 1.066406 -7.171875 1.640625 -7.609375 C 2.210938 -8.046875 2.941406 -8.265625 3.828125 -8.265625 C 4.835938 -8.265625 5.78125 -8.070312 6.65625 -7.6875 L 6.65625 -6.421875 L 6.578125 -6.421875 C 6.273438 -6.671875 5.867188 -6.882812 5.359375 -7.0625 C 4.847656 -7.238281 4.332031 -7.328125 3.8125 -7.328125 C 3.238281 -7.328125 2.773438 -7.207031 2.421875 -6.96875 C 2.078125 -6.726562 1.90625 -6.421875 1.90625 -6.046875 C 1.90625 -5.722656 1.972656 -5.472656 2.109375 -5.296875 C 2.242188 -5.128906 2.4375 -5 2.6875 -4.90625 C 2.945312 -4.820312 3.410156 -4.726562 4.078125 -4.625 C 5.316406 -4.414062 6.109375 -4.125 6.453125 -3.75 C 6.804688 -3.375 6.984375 -2.894531 6.984375 -2.3125 C 6.984375 -1.632812 6.691406 -1.054688 6.109375 -0.578125 C 5.535156 -0.0976562 4.742188 0.140625 3.734375 0.140625 C 2.703125 0.140625 1.703125 -0.0703125 0.734375 -0.5 Z M 0.734375 -0.5 "/></g></g></g></svg>