<?xml version="1.0" standalone="no"?>
<!DOCTYPE svg PUBLIC "-//W3C//DTD SVG 20010904//EN" "http://www.w3.org/TR/2001/REC-SVG-20010904/DTD/svg10.dtd">
<svg version="1.0" xmlns="http://www.w3.org/2000/svg" width="512.000000pt" height="512.000000pt" viewBox="0 0 512.000000 512.000000" preserveAspectRatio="xMidYMid meet">
  <g transform="translate(0.000000,512.000000) scale(0.100000,-0.100000)" fill="#000000" stroke="none">
    <path d="M2379 4696 c-2 -2 -33 -7 -68 -10 -79 -8 -114 -13 -201 -31 -172 -35 -397 -120 -555 -210 -300 -172 -577 -450 -750 -754 -73 -128 -158 -326 -190 -441 -6 -25 -13 -54 -16 -65 -38 -153 -50 -255 -50 -430 0 -174 15 -302 51 -435 11 -40 19 -75 19 -77 0 -15 88 -246 126 -331 103 -231 246 -432 434 -612 140 -133 156 -146 294 -237 125 -82 328 -178 437 -208 14 -3 43 -12 65 -19 22 -7 51 -14 65 -16 14 -2 41 -8 60 -13 109 -28 264 -39 435 -31 143 7 315 40 440 85 17 6 39 13 50 16 34 8 206 85 275 123 152 83 347 229 453 338 28 29 55 56 60 61 64 59 218 270 285 390 212 380 278 780 200 1212 -27 152 -111 376 -202 540 -107 192 -299 410 -487 552 -106 81 -343 213 -449 251 -14 5 -61 21 -105 36 -145 50 -380 87 -535 85 -46 -1 -86 -3 -88 -4z m201 -191 c98 -7 269 -41 350 -70 187 -67 318 -135 465 -244 119 -89 160 -127 251 -235 219 -259 347 -560 377 -891 18 -190 -1 -394 -51 -560 -13 -42 -33 -108 -47 -145 -93 -266 -274 -522 -495 -698 -196 -155 -430 -266 -650 -308 -41 -8 -93 -18 -115 -21 -187 -29 -433 -5 -640 63 -119 40 -309 133 -395 194 -30 22 -64 45 -74 52 -114 80 -286 247 -354 343 -13 19 -27 37 -30 40 -28 26 -127 207 -172 316 -155 379 -154 810 3 1191 25 61 95 202 110 221 3 3 23 34 44 68 91 146 260 320 412 421 80 54 273 152 334 171 10 3 32 11 49 19 17 7 61 21 97 31 36 10 88 25 115 33 67 20 326 45 416 43 19 0 69 -3 110 -6z"></path>
    <path d="M2408 4290 c-354 -56 -676 -230 -908 -493 -236 -268 -363 -620 -356 -982 6 -284 79 -520 230 -750 207 -315 516 -528 883 -610 85 -19 126 -24 232 -26 226 -6 417 30 619 117 120 51 151 69 257 144 350 246 575 638 610 1057 9 109 8 154 -5 284 -22 219 -104 441 -234 635 -69 102 -201 242 -296 313 -265 200 -559 304 -870 310 -80 1 -144 -1 -162 -5z m183 -160 c21 -6 41 -13 44 -16 3 -2 18 -6 33 -9 32 -5 118 -41 197 -81 274 -139 478 -402 557 -719 l12 -50 0 -400 0 -400 -12 -50 c-34 -143 -105 -307 -173 -402 -20 -27 -40 -58 -46 -70 -6 -11 -17 -25 -25 -29 -7 -5 -26 -23 -41 -40 -46 -53 -181 -151 -277 -201 -137 -71 -305 -118 -442 -123 -44 -1 -91 -6 -104 -9 -13 -4 -33 -3 -45 1 -13 4 -26 5 -29 2 -5 -5 -128 29 -193 53 -235 87 -432 254 -564 478 -128 216 -175 389 -166 609 8 210 66 398 171 562 179 278 445 458 762 514 17 3 41 8 55 11 34 7 253 -3 286 -13z"></path>
    <path d="M1566 3478 c-9 -5 -16 -14 -16 -19 0 -18 84 -553 90 -570 1 -5 3 -17 4 -26 1 -10 5 -18 9 -18 4 0 6 -4 3 -8 -3 -5 1 -20 7 -35 6 -15 13 -32 15 -38 52 -143 191 -264 341 -298 169 -39 571 -37 733 4 180 45 308 179 319 334 1 19 -4 12 43 187 15 55 29 107 31 115 53 202 55 214 42 225 -8 7 -22 9 -30 5 -18 -7 -29 -43 -46 -148 -5 -30 -12 -64 -15 -75 -2 -11 -7 -31 -9 -45 -9 -41 -56 -222 -62 -233 -4 -7 -2 -12 5 -13 6 0 5 -4 -3 -9 -7 -5 -14 -18 -15 -30 -2 -44 -88 -135 -157 -168 -92 -44 -149 -51 -410 -51 -262 0 -343 9 -426 49 -68 32 -146 112 -168 173 -5 15 -13 28 -17 29 -5 0 -12 17 -15 38 -3 20 -8 62 -11 92 -3 30 -10 82 -16 115 -5 33 -12 80 -15 105 -3 25 -8 56 -10 70 -3 14 -7 41 -9 60 -3 19 -7 46 -10 60 -3 14 -8 43 -11 65 -2 22 -9 60 -14 85 -12 62 -29 57 -50 -15 -9 -32 -18 -69 -20 -82 -3 -14 -7 -33 -10 -42 -3 -10 -7 -30 -10 -45 -3 -16 -7 -40 -10 -55 -3 -16 -8 -42 -10 -58 -3 -17 -7 -44 -10 -60 -3 -17 -8 -46 -10 -63 -2 -18 -7 -46 -10 -62 -3 -17 -8 -48 -11 -70 -3 -22 -7 -51 -10 -65 -3 -13 -7 -42 -10 -65 -3 -22 -7 -51 -10 -65 -3 -14 -7 -41 -10 -60 -3 -19 -8 -51 -11 -70 -3 -19 -7 -50 -10 -67 -21 -144 -26 -170 -39 -184 -12 -14 -15 -14 -30 -1 -16 15 -56 216 -71 366 -3 30 -8 66 -10 80 -5 30 -13 88 -19 135 -3 19 -8 53 -11 75 -4 22 -8 51 -10 65 -3 31 -12 81 -22 126 -9 40 -23 48 -46 35z"></path>
    <path d="M1688 2580 c-21 -16 -27 -51 -29 -168 -1 -39 -4 -75 -7 -79 -4 -3 -3 -14 0 -23 6 -15 10 -16 26 -5 18 11 21 25 25 110 2 53 6 101 8 107 2 5 0 15 -5 21 -5 7 -4 19 1 27 10 15 7 16 -19 10z"></path>
    <path d="M1797 2583 c-2 -4 -2 -16 -1 -26 2 -10 -1 -21 -7 -25 -6 -4 -8 -11 -5 -16 5 -7 -16 -126 -22 -126 -2 0 0 -10 5 -23 6 -17 13 -22 25 -17 13 5 18 22 21 64 2 31 6 58 8 60 2 2 -2 26 -10 52 -7 26 -11 47 -9 47 2 0 0 5 -4 11 -5 5 -9 7 -11 2 0 -4 -4 -3 -9 3 -4 7 1 12 14 12 13 0 19 4 15 10 -8 14 -5 13 -20 -28z"></path>
    <path d="M2569 2583 c0 -5 -2 -15 -5 -23 -3 -8 -14 -39 -25 -70 -11 -30 -19 -61 -18 -67 0 -7 -5 -13 -11 -13 -7 0 -7 -4 2 -11 11 -8 14 -25 12 -62 -2 -37 1 -54 11 -57 19 -7 35 13 35 43 0 14 5 28 10 31 6 3 10 17 10 29 0 13 9 34 21 46 11 13 18 30 15 38 -3 8 -2 14 2 14 4 0 8 21 10 47 2 44 1 48 -21 51 -14 2 -29 9 -35 16 -11 13 -12 13 -13 -12z"></path>
    <path d="M1935 2553 c-11 -2 -28 -19 -38 -37 -18 -32 -20 -55 -23 -256 -1 -85 0 -156 2 -158 2 -3 12 -3 22 -1 15 2 22 15 28 50 4 25 9 50 11 55 2 4 6 24 9 45 3 20 8 41 11 46 3 6 7 28 8 50 1 22 4 45 7 50 5 7 5 120 0 153 -1 8 -17 11 -37 3z"></path>
    <path d="M2095 2553 c-24 -6 -25 -11 -26 -125 -1 -63 3 -118 7 -122 5 -5 6 2 2 14 -5 16 -3 20 11 19 13 -2 17 -13 18 -49 1 -33 6 -50 18 -57 14 -8 21 -6 30 8 7 10 15 19 18 19 4 0 7 6 7 13 0 17 -21 13 -31 -7 -4 -8 -11 -12 -16 -9 -17 11 -10 103 9 103 5 0 7 9 3 21 -5 15 -2 20 9 20 9 -1 16 -8 16 -16 1 -8 5 -15 10 -15 5 0 8 -7 6 -15 -1 -8 2 -15 7 -15 5 0 7 12 4 26 -5 21 -2 28 13 33 24 8 25 23 2 48 -18 19 -20 19 -27 3 -4 -9 -13 -15 -20 -12 -8 3 -17 6 -22 6 -4 0 -7 13 -5 29 2 25 7 29 31 30 15 0 30 -4 34 -9 3 -5 11 -7 17 -4 17 11 12 42 -8 48 -28 9 -88 9 -117 -2z"></path>
    <path d="M2327 2553 c-2 -4 -2 -16 -1 -26 2 -10 -1 -21 -7 -25 -6 -4 -8 -11 -5 -16 4 -5 3 -21 -2 -36 -5 -14 -8 -51 -7 -82 1 -31 -1 -59 -5 -63 -13 -12 -10 -48 4 -54 29 -11 45 13 46 69 l1 40 45 -1 c60 -1 62 0 59 30 -2 14 -9 33 -16 44 -6 10 -9 23 -6 29 3 5 2 15 -2 22 -5 7 -9 24 -10 38 -1 14 -5 31 -9 36 -10 16 -78 15 -85 -5z m84 -93 c9 -24 8 -100 -2 -107 -3 -4 -18 -6 -31 -6 -20 1 -25 6 -26 28 -1 15 -3 34 -4 43 -3 20 15 62 28 62 5 0 15 2 22 5 7 3 10 -6 13 -25z"></path>
    <path d="M2754 2553 c-13 -2 -28 -35 -53 -113 -19 -60 -37 -111 -39 -113 -2 -2 -5 -30 -6 -62 -2 -32 -6 -69 -9 -82 -3 -12 -8 -26 -11 -30 -3 -5 0 -13 8 -18 8 -5 17 -6 20 -3 3 4 9 40 14 80 5 40 11 88 14 105 3 18 6 61 7 95 1 35 4 69 8 75 9 14 88 17 104 4 6 -5 12 -28 14 -50 2 -23 6 -52 8 -66 3 -14 8 -47 11 -75 3 -27 8 -61 10 -75 3 -14 7 -41 10 -60 3 -19 7 -51 10 -70 3 -19 7 -48 9 -65 12 -85 36 -110 62 -65 9 16 15 47 15 85 0 33 4 68 9 77 5 10 12 50 15 89 3 40 8 86 11 103 3 17 8 47 10 66 3 19 8 46 11 60 10 41 11 102 3 106 -4 3 -17 2 -28 -2 -15 -4 -21 -14 -22 -35 -1 -16 -4 -34 -7 -40 -3 -5 -6 -21 -8 -35 -1 -14 -8 -52 -15 -85 -6 -33 -13 -69 -15 -80 -1 -11 -6 -36 -9 -55 -3 -19 -8 -51 -12 -70 -3 -19 -6 -39 -7 -45 -2 -6 -6 1 -10 15 -4 14 -8 33 -9 42 -2 9 -6 27 -9 40 -4 12 -8 39 -11 59 -2 20 -6 49 -9 65 -9 53 -16 100 -19 120 -1 11 -3 20 -4 20 -1 0 -3 11 -6 25 -5 30 -20 39 -60 36z"></path>
  </g>
</svg>