<svg xmlns="http://www.w3.org/2000/svg" xmlns:xlink="http://www.w3.org/1999/xlink" width="500" zoomAndPan="magnify" viewBox="0 0 375 374.999991" height="500" preserveAspectRatio="xMidYMid meet" version="1.0"><defs><g/></defs><g fill="#000000" fill-opacity="1"><g transform="translate(132.207637, 269.114249)"><g><path d="M 24.125 -37.921875 L 22.171875 -37.6875 L 22.0625 -37.453125 C 24.28125 -37.535156 25.828125 -37.59375 26.703125 -37.625 C 27.585938 -37.664062 28.609375 -37.722656 29.765625 -37.796875 C 29.992188 -37.648438 29.992188 -37.5 29.765625 -37.34375 L 28.03125 -37.109375 C 27.726562 -36.878906 26.925781 -36.765625 25.625 -36.765625 C 25.320312 -36.765625 24.921875 -36.765625 24.421875 -36.765625 C 23.921875 -36.765625 23.285156 -36.726562 22.515625 -36.65625 C 21.910156 -36.65625 21.222656 -36.671875 20.453125 -36.703125 C 19.679688 -36.742188 19.03125 -36.726562 18.5 -36.65625 L 17.234375 -36.65625 L 15.96875 -32.75 C 15.738281 -32.675781 15.546875 -32.445312 15.390625 -32.0625 C 15.242188 -31.675781 15.207031 -31.367188 15.28125 -31.140625 C 15.351562 -31.066406 15.238281 -30.796875 14.9375 -30.328125 C 15.09375 -29.796875 14.863281 -29.222656 14.25 -28.609375 C 14.25 -28.535156 14.207031 -28.441406 14.125 -28.328125 C 14.050781 -28.210938 14.054688 -28.078125 14.140625 -27.921875 C 14.367188 -27.460938 14.210938 -27.15625 13.671875 -27 C 13.671875 -27 13.671875 -26.847656 13.671875 -26.546875 C 13.515625 -26.160156 13.4375 -25.796875 13.4375 -25.453125 C 13.4375 -25.109375 13.363281 -24.742188 13.21875 -24.359375 C 13.132812 -24.054688 13.035156 -23.789062 12.921875 -23.5625 C 12.804688 -23.332031 12.710938 -23.097656 12.640625 -22.859375 C 12.566406 -22.328125 12.410156 -21.773438 12.171875 -21.203125 C 11.941406 -20.628906 11.789062 -20.070312 11.71875 -19.53125 C 11.5625 -19.226562 11.40625 -18.90625 11.25 -18.5625 C 11.101562 -18.21875 11.03125 -17.851562 11.03125 -17.46875 C 10.875 -16.851562 10.703125 -16.21875 10.515625 -15.5625 C 10.328125 -14.914062 10.191406 -14.285156 10.109375 -13.671875 C 10.035156 -13.515625 9.941406 -13.34375 9.828125 -13.15625 C 9.710938 -12.96875 9.578125 -12.796875 9.421875 -12.640625 C 9.578125 -12.335938 9.613281 -12.03125 9.53125 -11.71875 C 9.457031 -11.414062 9.421875 -11.109375 9.421875 -10.796875 C 9.421875 -10.722656 9.363281 -10.570312 9.25 -10.34375 C 9.132812 -10.113281 9.078125 -9.921875 9.078125 -9.765625 C 8.921875 -9.078125 8.882812 -8.617188 8.96875 -8.390625 C 8.65625 -7.472656 8.5 -6.550781 8.5 -5.625 C 8.5 -5.394531 8.421875 -5.207031 8.265625 -5.0625 C 8.117188 -5.0625 8.195312 -4.984375 8.5 -4.828125 C 8.34375 -4.441406 8.148438 -4.054688 7.921875 -3.671875 C 8.148438 -3.367188 8.285156 -2.851562 8.328125 -2.125 C 8.367188 -1.394531 8.234375 -0.992188 7.921875 -0.921875 C 8.078125 -0.835938 8.191406 -0.757812 8.265625 -0.6875 C 8.347656 -0.613281 8.273438 -0.5 8.046875 -0.34375 C 8.347656 -0.269531 8.5 0.0351562 8.5 0.578125 C 8.425781 0.960938 8.445312 1.363281 8.5625 1.78125 C 8.675781 2.195312 8.769531 2.597656 8.84375 2.984375 C 8.84375 3.367188 8.9375 3.675781 9.125 3.90625 C 9.320312 4.132812 9.457031 4.328125 9.53125 4.484375 L 10.34375 5.40625 C 10.875 5.707031 11.234375 5.894531 11.421875 5.96875 C 11.617188 6.050781 11.988281 6.050781 12.53125 5.96875 C 12.988281 6.050781 13.484375 5.976562 14.015625 5.75 C 14.554688 5.519531 14.828125 5.40625 14.828125 5.40625 C 14.972656 5.9375 14.875 6.410156 14.53125 6.828125 C 14.1875 7.253906 13.863281 7.695312 13.5625 8.15625 C 13.332031 8.46875 12.945312 8.625 12.40625 8.625 L 12.640625 8.625 C 11.796875 8.695312 11.179688 8.710938 10.796875 8.671875 C 10.421875 8.640625 9.8125 8.351562 8.96875 7.8125 C 8.425781 7.65625 8 7.40625 7.6875 7.0625 C 7.382812 6.71875 7.003906 6.28125 6.546875 5.75 C 6.390625 5.519531 6.160156 5.25 5.859375 4.9375 C 5.242188 4.019531 4.78125 3.003906 4.46875 1.890625 C 4.164062 0.785156 3.898438 -0.34375 3.671875 -1.5 C 3.441406 -2.644531 3.382812 -3.789062 3.5 -4.9375 C 3.613281 -6.09375 3.710938 -7.28125 3.796875 -8.5 C 3.710938 -9.1875 3.765625 -9.875 3.953125 -10.5625 C 4.148438 -11.257812 4.285156 -11.953125 4.359375 -12.640625 L 5.171875 -15.859375 C 5.398438 -16.472656 5.550781 -17.101562 5.625 -17.75 C 5.707031 -18.40625 5.863281 -19.113281 6.09375 -19.875 C 6.09375 -20.101562 6.164062 -20.3125 6.3125 -20.5 C 6.46875 -20.695312 6.585938 -20.945312 6.671875 -21.25 L 6.890625 -21.25 C 6.816406 -21.332031 6.78125 -21.410156 6.78125 -21.484375 C 6.78125 -21.566406 6.742188 -21.644531 6.671875 -21.71875 L 10.34375 -33.203125 L 11.484375 -36.765625 C 10.179688 -36.765625 8.421875 -36.878906 6.203125 -37.109375 C 5.515625 -37.265625 4.898438 -37.4375 4.359375 -37.625 C 3.828125 -37.820312 3.523438 -38.1875 3.453125 -38.71875 C 3.453125 -38.875 3.507812 -39.101562 3.625 -39.40625 C 3.738281 -39.71875 3.945312 -39.910156 4.25 -39.984375 C 4.5625 -40.367188 4.8125 -40.5625 5 -40.5625 C 5.1875 -40.5625 5.28125 -40.5625 5.28125 -40.5625 C 5.363281 -40.5625 5.476562 -40.539062 5.625 -40.5 C 5.78125 -40.46875 5.894531 -40.488281 5.96875 -40.5625 C 6.351562 -40.71875 6.738281 -40.832031 7.125 -40.90625 C 7.507812 -40.976562 7.890625 -40.941406 8.265625 -40.796875 L 10.453125 -40.5625 C 10.992188 -40.632812 11.472656 -40.671875 11.890625 -40.671875 C 12.316406 -40.671875 12.679688 -40.671875 12.984375 -40.671875 C 13.367188 -41.285156 13.632812 -41.878906 13.78125 -42.453125 C 13.9375 -43.023438 14.171875 -43.582031 14.484375 -44.125 C 14.628906 -44.738281 14.816406 -45.3125 15.046875 -45.84375 C 15.273438 -46.382812 15.503906 -46.921875 15.734375 -47.453125 C 15.890625 -48.066406 16.117188 -48.679688 16.421875 -49.296875 C 16.734375 -49.910156 16.96875 -50.5625 17.125 -51.25 C 17.425781 -51.863281 17.671875 -52.492188 17.859375 -53.140625 C 18.054688 -53.796875 18.304688 -54.46875 18.609375 -55.15625 C 18.609375 -55.382812 18.6875 -55.570312 18.84375 -55.71875 C 19 -55.875 19.148438 -56.109375 19.296875 -56.421875 C 19.453125 -56.804688 19.625 -57.265625 19.8125 -57.796875 C 20.007812 -58.335938 20.144531 -58.796875 20.21875 -59.171875 C 20.445312 -59.785156 20.789062 -60.015625 21.25 -59.859375 C 21.332031 -59.785156 21.429688 -59.726562 21.546875 -59.6875 C 21.660156 -59.65625 21.753906 -59.597656 21.828125 -59.515625 C 22.285156 -59.210938 22.722656 -58.960938 23.140625 -58.765625 C 23.566406 -58.578125 23.820312 -58.253906 23.90625 -57.796875 C 23.976562 -57.640625 24.109375 -57.484375 24.296875 -57.328125 C 24.492188 -57.179688 24.628906 -57.03125 24.703125 -56.875 C 25.160156 -56.570312 25.351562 -56.265625 25.28125 -55.953125 C 25.207031 -55.648438 25.09375 -55.304688 24.9375 -54.921875 C 24.476562 -53.847656 24.015625 -52.796875 23.546875 -51.765625 C 23.085938 -50.734375 22.554688 -49.71875 21.953125 -48.71875 C 21.796875 -48.03125 21.523438 -47.320312 21.140625 -46.59375 C 20.753906 -45.863281 20.410156 -45.117188 20.109375 -44.359375 C 19.722656 -43.203125 19.429688 -42.375 19.234375 -41.875 C 19.046875 -41.382812 18.878906 -40.832031 18.734375 -40.21875 C 19.578125 -40.144531 20.226562 -40.046875 20.6875 -39.921875 C 21.144531 -39.804688 21.488281 -39.789062 21.71875 -39.875 C 23.550781 -39.789062 24.945312 -39.726562 25.90625 -39.6875 C 26.863281 -39.65625 27.648438 -39.65625 28.265625 -39.6875 C 28.878906 -39.726562 29.566406 -39.828125 30.328125 -39.984375 C 30.484375 -40.066406 30.675781 -40.179688 30.90625 -40.328125 C 31.132812 -40.484375 31.328125 -40.484375 31.484375 -40.328125 C 31.640625 -39.796875 31.425781 -39.429688 30.84375 -39.234375 C 30.269531 -39.046875 29.867188 -38.757812 29.640625 -38.375 L 29.421875 -38.265625 C 29.109375 -38.265625 28.679688 -38.242188 28.140625 -38.203125 C 27.609375 -38.171875 27.148438 -38.078125 26.765625 -37.921875 C 26.535156 -38.078125 26.132812 -38.132812 25.5625 -38.09375 C 24.988281 -38.050781 24.507812 -37.992188 24.125 -37.921875 Z M 24.125 -37.921875 "/></g></g></g><g fill="#000000" fill-opacity="1"><g transform="translate(156.336012, 269.114249)"><g><path d="M 32.640625 -15.734375 L 32.75 -15.625 L 32.75 -14.59375 C 32.0625 -13.90625 31.484375 -13.367188 31.015625 -12.984375 C 30.554688 -12.597656 30.140625 -12.289062 29.765625 -12.0625 C 29.535156 -11.90625 29.378906 -11.734375 29.296875 -11.546875 C 29.222656 -11.359375 29.070312 -11.265625 28.84375 -11.265625 L 28.03125 -11.265625 C 27.882812 -11.265625 27.8125 -11.222656 27.8125 -11.140625 C 27.726562 -10.835938 27.515625 -10.644531 27.171875 -10.5625 C 26.828125 -10.488281 26.503906 -10.378906 26.203125 -10.234375 L 24.59375 -9.53125 C 23.976562 -9.226562 23.421875 -9.035156 22.921875 -8.953125 C 22.421875 -8.878906 21.863281 -8.804688 21.25 -8.734375 C 21.101562 -8.734375 20.972656 -8.710938 20.859375 -8.671875 C 20.742188 -8.640625 20.609375 -8.625 20.453125 -8.625 C 19.992188 -8.625 19.765625 -8.390625 19.765625 -7.921875 C 19.691406 -7.773438 19.613281 -7.601562 19.53125 -7.40625 C 19.457031 -7.21875 19.421875 -7.007812 19.421875 -6.78125 L 19.65625 -6.671875 C 19.65625 -6.671875 19.65625 -6.648438 19.65625 -6.609375 C 19.65625 -6.566406 19.65625 -6.546875 19.65625 -6.546875 C 19.34375 -6.242188 19.144531 -5.9375 19.0625 -5.625 C 18.988281 -5.320312 18.765625 -5.054688 18.390625 -4.828125 C 18.304688 -4.753906 18.285156 -4.640625 18.328125 -4.484375 C 18.367188 -4.328125 18.347656 -4.210938 18.265625 -4.140625 C 17.804688 -3.597656 17.40625 -3.054688 17.0625 -2.515625 C 16.71875 -1.984375 16.273438 -1.410156 15.734375 -0.796875 L 15.515625 -0.578125 C 15.203125 -0.265625 14.894531 0.0195312 14.59375 0.28125 C 14.289062 0.550781 14.019531 0.84375 13.78125 1.15625 C 13.320312 1.457031 12.90625 1.609375 12.53125 1.609375 C 12.0625 1.910156 11.617188 2.140625 11.203125 2.296875 C 10.785156 2.453125 10.304688 2.601562 9.765625 2.75 C 9.234375 2.90625 8.851562 2.90625 8.625 2.75 C 8.082031 2.675781 7.484375 2.617188 6.828125 2.578125 C 6.179688 2.546875 5.628906 2.414062 5.171875 2.1875 C 4.484375 2.03125 3.890625 1.78125 3.390625 1.4375 C 2.890625 1.09375 2.445312 0.648438 2.0625 0.109375 C 1.457031 -0.492188 1.078125 -1.296875 0.921875 -2.296875 C 0.765625 -3.296875 0.648438 -4.253906 0.578125 -5.171875 C 0.492188 -6.242188 0.644531 -7.332031 1.03125 -8.4375 C 1.414062 -9.550781 1.757812 -10.609375 2.0625 -11.609375 C 2.21875 -11.992188 2.332031 -12.453125 2.40625 -12.984375 C 2.488281 -13.515625 2.566406 -13.78125 2.640625 -13.78125 C 3.023438 -14.394531 3.367188 -15.007812 3.671875 -15.625 C 3.984375 -16.238281 4.289062 -16.695312 4.59375 -17 C 5.132812 -17.539062 5.691406 -18.039062 6.265625 -18.5 C 6.835938 -18.957031 7.46875 -19.34375 8.15625 -19.65625 C 8.695312 -19.882812 9.234375 -20 9.765625 -20 C 10.304688 -20 10.804688 -20 11.265625 -20 C 11.566406 -20 11.796875 -19.878906 11.953125 -19.640625 C 12.109375 -19.410156 12.300781 -19.179688 12.53125 -18.953125 C 12.601562 -18.878906 12.695312 -18.84375 12.8125 -18.84375 C 12.925781 -18.84375 13.019531 -18.804688 13.09375 -18.734375 C 13.707031 -18.503906 14.378906 -18.332031 15.109375 -18.21875 C 15.835938 -18.101562 16.546875 -17.738281 17.234375 -17.125 C 17.304688 -17.039062 17.4375 -17 17.625 -17 C 17.820312 -17 17.960938 -16.960938 18.046875 -16.890625 C 18.648438 -16.429688 19.222656 -15.628906 19.765625 -14.484375 L 20.5625 -11.953125 C 20.5625 -11.722656 20.5625 -11.609375 20.5625 -11.609375 C 21.632812 -11.992188 22.671875 -12.359375 23.671875 -12.703125 C 24.671875 -13.046875 25.664062 -13.367188 26.65625 -13.671875 C 27.5 -14.054688 28.34375 -14.363281 29.1875 -14.59375 C 30.03125 -14.820312 31.179688 -15.203125 32.640625 -15.734375 Z M 16.3125 -11.140625 C 16.238281 -11.453125 16.21875 -11.78125 16.25 -12.125 C 16.289062 -12.46875 16.3125 -12.789062 16.3125 -13.09375 C 16.238281 -13.550781 16.144531 -14.046875 16.03125 -14.578125 C 15.914062 -15.117188 15.703125 -15.625 15.390625 -16.09375 C 15.242188 -16.394531 14.976562 -16.46875 14.59375 -16.3125 C 13.90625 -16.3125 13.367188 -16.117188 12.984375 -15.734375 C 12.679688 -15.429688 12.351562 -15.144531 12 -14.875 C 11.65625 -14.613281 11.445312 -14.210938 11.375 -13.671875 C 11.375 -12.984375 11.523438 -12.367188 11.828125 -11.828125 C 11.984375 -11.367188 12.40625 -11.140625 13.09375 -11.140625 Z M 15.28125 -7.703125 C 15.582031 -8.078125 15.46875 -8.382812 14.9375 -8.625 C 14.164062 -8.625 13.476562 -8.738281 12.875 -8.96875 C 11.644531 -9.195312 10.53125 -9.691406 9.53125 -10.453125 C 8.6875 -10.910156 8.148438 -11.488281 7.921875 -12.1875 C 7.617188 -12.5625 7.429688 -12.976562 7.359375 -13.4375 C 7.046875 -12.75 6.753906 -12.15625 6.484375 -11.65625 C 6.222656 -11.164062 5.9375 -10.613281 5.625 -10 C 5.476562 -9.769531 5.347656 -9.5 5.234375 -9.1875 C 5.117188 -8.882812 5.019531 -8.617188 4.9375 -8.390625 C 4.863281 -8.078125 4.804688 -7.769531 4.765625 -7.46875 C 4.734375 -7.164062 4.675781 -6.859375 4.59375 -6.546875 C 4.363281 -6.015625 4.226562 -5.421875 4.1875 -4.765625 C 4.15625 -4.117188 4.140625 -3.488281 4.140625 -2.875 C 4.140625 -2.488281 4.175781 -2.140625 4.25 -1.828125 C 4.320312 -1.523438 4.398438 -1.179688 4.484375 -0.796875 C 4.554688 -0.335938 4.878906 -0.015625 5.453125 0.171875 C 6.023438 0.359375 6.695312 0.300781 7.46875 0 C 8.3125 -0.226562 9.132812 -0.609375 9.9375 -1.140625 C 10.738281 -1.679688 11.445312 -2.257812 12.0625 -2.875 C 12.832031 -3.632812 13.484375 -4.4375 14.015625 -5.28125 C 14.242188 -5.664062 14.4375 -6.066406 14.59375 -6.484375 C 14.75 -6.910156 14.976562 -7.316406 15.28125 -7.703125 Z M 15.28125 -7.703125 "/></g></g></g><g fill="#000000" fill-opacity="1"><g transform="translate(183.336814, 269.114249)"><g><path d="M 39.40625 -4.140625 L 39.640625 -2.75 C 39.335938 -2.289062 38.992188 -1.8125 38.609375 -1.3125 C 38.222656 -0.820312 37.953125 -0.460938 37.796875 -0.234375 C 37.648438 -0.148438 37.460938 0.0195312 37.234375 0.28125 C 37.003906 0.550781 36.8125 0.6875 36.65625 0.6875 C 36.269531 1 35.863281 1.226562 35.4375 1.375 C 35.019531 1.53125 34.582031 1.835938 34.125 2.296875 L 31.71875 3.671875 L 26.65625 7.46875 L 24.25 8.734375 L 23.5625 8.84375 C 23.476562 9.226562 23.359375 9.59375 23.203125 9.9375 C 23.054688 10.28125 22.789062 10.644531 22.40625 11.03125 C 22.25 11.101562 22.148438 11.332031 22.109375 11.71875 C 22.078125 12.101562 21.984375 12.332031 21.828125 12.40625 C 21.753906 12.632812 21.675781 12.828125 21.59375 12.984375 C 21.519531 13.140625 21.484375 13.332031 21.484375 13.5625 L 21.71875 13.5625 C 21.644531 13.5625 21.507812 14.132812 21.3125 15.28125 C 21.125 16.425781 20.894531 17.785156 20.625 19.359375 C 20.351562 20.929688 20.125 22.347656 19.9375 23.609375 C 19.75 24.878906 19.65625 25.585938 19.65625 25.734375 C 19.570312 26.191406 19.429688 27.109375 19.234375 28.484375 C 19.046875 29.867188 18.765625 30.71875 18.390625 31.03125 C 18.535156 31.40625 18.53125 31.648438 18.375 31.765625 C 18.226562 31.878906 18.117188 31.898438 18.046875 31.828125 L 17.921875 31.828125 L 17.34375 35.5 C 17.269531 35.582031 17.019531 36.140625 16.59375 37.171875 C 16.175781 38.203125 15.890625 38.988281 15.734375 39.53125 L 13.90625 47.6875 L 8.96875 58.03125 L 6.890625 62.859375 L 4.828125 65.953125 L 3.671875 67.796875 C 3.367188 67.867188 3.003906 68.039062 2.578125 68.3125 C 2.160156 68.582031 1.644531 68.832031 1.03125 69.0625 C 0.570312 69.445312 -0.0351562 69.925781 -0.796875 70.5 C -1.566406 71.070312 -1.914062 71.359375 -1.84375 71.359375 C -2.375 71.816406 -3.25 72.0625 -4.46875 72.09375 C -5.695312 72.132812 -6.660156 72.234375 -7.359375 72.390625 C -7.660156 72.460938 -8.078125 72.476562 -8.609375 72.4375 C -9.148438 72.40625 -9.613281 72.3125 -10 72.15625 C -11.757812 71.78125 -13.210938 71.148438 -14.359375 70.265625 C -15.515625 69.378906 -16.628906 68.210938 -17.703125 66.765625 C -17.929688 66.222656 -18.21875 65.625 -18.5625 64.96875 C -18.90625 64.320312 -19.226562 63.65625 -19.53125 62.96875 C -20.757812 61.125 -21.03125 59.171875 -20.34375 57.109375 C -20.34375 56.265625 -20.378906 55.726562 -20.453125 55.5 C -20.296875 54.582031 -20.160156 53.738281 -20.046875 52.96875 C -19.929688 52.207031 -19.875 51.519531 -19.875 50.90625 C -19.414062 48.914062 -18.785156 46.976562 -17.984375 45.09375 C -17.179688 43.21875 -16.28125 41.398438 -15.28125 39.640625 C -14.28125 37.953125 -13.242188 36.34375 -12.171875 34.8125 C -11.109375 33.28125 -10.039062 31.785156 -8.96875 30.328125 C -7.894531 28.953125 -6.742188 27.613281 -5.515625 26.3125 C -4.285156 25.007812 -3.0625 23.742188 -1.84375 22.515625 C -0.539062 21.441406 0.78125 20.3125 2.125 19.125 C 3.46875 17.9375 4.828125 16.847656 6.203125 15.859375 C 6.972656 15.242188 7.738281 14.664062 8.5 14.125 C 9.269531 13.59375 9.960938 13.097656 10.578125 12.640625 C 11.179688 12.179688 11.75 11.816406 12.28125 11.546875 C 12.820312 11.273438 13.25 10.953125 13.5625 10.578125 C 14.09375 10.265625 14.625 9.914062 15.15625 9.53125 C 15.695312 9.15625 16.160156 8.890625 16.546875 8.734375 C 17.160156 8.347656 17.503906 7.960938 17.578125 7.578125 C 17.660156 7.203125 17.703125 6.742188 17.703125 6.203125 C 17.847656 5.585938 18 5.03125 18.15625 4.53125 C 18.3125 4.039062 18.347656 3.523438 18.265625 2.984375 C 18.421875 2.140625 18.554688 1.351562 18.671875 0.625 C 18.785156 -0.09375 18.878906 -0.835938 18.953125 -1.609375 C 19.566406 -4.140625 19.914062 -6.398438 20 -8.390625 C 19.914062 -8.773438 19.929688 -9.15625 20.046875 -9.53125 C 20.160156 -9.914062 20.257812 -10.265625 20.34375 -10.578125 L 19.53125 -10.796875 C 18.6875 -10.265625 17.878906 -9.613281 17.109375 -8.84375 C 16.347656 -8.082031 15.507812 -7.28125 14.59375 -6.4375 C 13.90625 -6.125 13.3125 -5.71875 12.8125 -5.21875 C 12.3125 -4.726562 11.71875 -4.289062 11.03125 -3.90625 C 10.570312 -3.601562 10.171875 -3.296875 9.828125 -2.984375 C 9.484375 -2.679688 9.082031 -2.453125 8.625 -2.296875 C 8.3125 -2.296875 7.695312 -2.546875 6.78125 -3.046875 C 5.863281 -3.546875 5.441406 -3.832031 5.515625 -3.90625 C 5.359375 -4.289062 5.1875 -4.691406 5 -5.109375 C 4.8125 -5.535156 4.640625 -5.898438 4.484375 -6.203125 C 4.398438 -6.816406 4.507812 -7.3125 4.8125 -7.6875 C 5.125 -8.070312 5.28125 -8.5 5.28125 -8.96875 C 5.507812 -9.65625 5.679688 -10.4375 5.796875 -11.3125 C 5.910156 -12.195312 6.007812 -13.019531 6.09375 -13.78125 C 6.164062 -14.164062 6.238281 -14.644531 6.3125 -15.21875 C 6.394531 -15.800781 6.550781 -16.359375 6.78125 -16.890625 C 7.007812 -17.660156 6.972656 -18.347656 6.671875 -18.953125 C 6.515625 -19.109375 6.453125 -19.335938 6.484375 -19.640625 C 6.523438 -19.953125 6.546875 -20.1875 6.546875 -20.34375 C 6.773438 -20.570312 6.984375 -20.757812 7.171875 -20.90625 C 7.367188 -21.0625 7.660156 -21.140625 8.046875 -21.140625 C 8.347656 -21.066406 8.554688 -21.007812 8.671875 -20.96875 C 8.785156 -20.925781 9.035156 -20.789062 9.421875 -20.5625 C 9.722656 -20.414062 10.082031 -20.128906 10.5 -19.703125 C 10.925781 -19.285156 11.296875 -18.921875 11.609375 -18.609375 C 11.609375 -18.609375 11.644531 -18.53125 11.71875 -18.375 C 11.789062 -18.226562 11.753906 -18.039062 11.609375 -17.8125 C 11.453125 -17.5 11.390625 -17.09375 11.421875 -16.59375 C 11.460938 -16.101562 11.410156 -15.550781 11.265625 -14.9375 C 11.179688 -14.550781 11.046875 -13.992188 10.859375 -13.265625 C 10.671875 -12.546875 10.460938 -11.835938 10.234375 -11.140625 C 10.234375 -10.453125 10.078125 -9.6875 9.765625 -8.84375 C 10.078125 -9 10.421875 -9.207031 10.796875 -9.46875 C 11.179688 -9.738281 11.410156 -9.953125 11.484375 -10.109375 C 12.023438 -10.421875 12.484375 -10.863281 12.859375 -11.4375 C 13.242188 -12.007812 13.671875 -12.445312 14.140625 -12.75 C 14.742188 -13.132812 15.238281 -13.554688 15.625 -14.015625 C 16.007812 -14.472656 16.46875 -14.859375 17 -15.171875 C 17.695312 -15.785156 18.332031 -16.359375 18.90625 -16.890625 C 19.476562 -17.429688 20.109375 -17.851562 20.796875 -18.15625 C 21.179688 -18.539062 21.46875 -18.804688 21.65625 -18.953125 C 21.851562 -19.109375 22.140625 -19.070312 22.515625 -18.84375 C 22.671875 -18.613281 22.882812 -18.476562 23.15625 -18.4375 C 23.425781 -18.40625 23.675781 -18.390625 23.90625 -18.390625 C 24.050781 -18.390625 24.21875 -18.347656 24.40625 -18.265625 C 24.601562 -18.191406 24.738281 -18.15625 24.8125 -18.15625 L 24.8125 -17.921875 L 25.046875 -17.125 C 25.429688 -16.96875 25.625 -16.789062 25.625 -16.59375 C 25.625 -16.40625 25.851562 -16.3125 26.3125 -16.3125 L 26.078125 -15.046875 C 26.003906 -14.671875 25.910156 -14.097656 25.796875 -13.328125 C 25.679688 -12.566406 25.585938 -12.109375 25.515625 -11.953125 L 25.515625 -11.71875 C 25.585938 -11.101562 25.488281 -10.410156 25.21875 -9.640625 C 24.945312 -8.878906 24.851562 -8.304688 24.9375 -7.921875 C 24.78125 -7.546875 24.703125 -7.125 24.703125 -6.65625 C 24.703125 -6.195312 24.664062 -5.78125 24.59375 -5.40625 C 24.59375 -5.25 24.550781 -5.070312 24.46875 -4.875 C 24.394531 -4.6875 24.359375 -4.59375 24.359375 -4.59375 C 23.898438 -4.207031 23.785156 -3.710938 24.015625 -3.109375 C 24.316406 -2.640625 24.375 -2.132812 24.1875 -1.59375 C 24 -1.0625 23.941406 -0.53125 24.015625 0 C 23.941406 0.0703125 23.804688 0.28125 23.609375 0.625 C 23.421875 0.976562 23.328125 1.226562 23.328125 1.375 C 23.253906 1.914062 23.195312 2.394531 23.15625 2.8125 C 23.113281 3.238281 23.015625 3.71875 22.859375 4.25 L 22.640625 4.484375 C 22.941406 4.867188 23.207031 4.867188 23.4375 4.484375 C 24.664062 3.796875 25.773438 3.179688 26.765625 2.640625 C 27.765625 2.109375 28.648438 1.492188 29.421875 0.796875 C 30.109375 0.421875 30.679688 0.117188 31.140625 -0.109375 C 31.597656 -0.335938 32.25 -0.6875 33.09375 -1.15625 L 35.390625 -2.1875 C 35.847656 -2.257812 36.570312 -2.601562 37.5625 -3.21875 C 38.5625 -3.832031 39.175781 -4.140625 39.40625 -4.140625 Z M 16.203125 16.890625 C 16.203125 16.503906 16.21875 16.082031 16.25 15.625 C 16.289062 15.164062 16.390625 14.785156 16.546875 14.484375 C 16.242188 14.554688 15.957031 14.628906 15.6875 14.703125 C 15.414062 14.785156 15.28125 14.976562 15.28125 15.28125 C 14.976562 15.738281 14.648438 16.140625 14.296875 16.484375 C 13.953125 16.828125 13.550781 17 13.09375 17 L 13.09375 17.34375 C 12.789062 17.5 12.539062 17.671875 12.34375 17.859375 C 12.15625 18.054688 11.984375 18.15625 11.828125 18.15625 C 11.679688 18.382812 11.453125 18.570312 11.140625 18.71875 C 10.835938 18.875 10.570312 19.066406 10.34375 19.296875 C 9.957031 19.835938 9.457031 20.359375 8.84375 20.859375 C 8.226562 21.359375 7.503906 21.679688 6.671875 21.828125 C 6.671875 21.828125 6.609375 21.847656 6.484375 21.890625 C 6.367188 21.929688 6.3125 22.023438 6.3125 22.171875 C 6.164062 22.398438 6.015625 22.628906 5.859375 22.859375 C 5.703125 23.097656 5.472656 23.289062 5.171875 23.4375 C 5.015625 23.75 4.820312 24.019531 4.59375 24.25 C 4.363281 24.476562 4.285156 24.628906 4.359375 24.703125 C 4.285156 24.703125 4.171875 24.71875 4.015625 24.75 C 3.867188 24.789062 3.640625 24.890625 3.328125 25.046875 C 3.253906 25.046875 3.160156 25.160156 3.046875 25.390625 C 2.929688 25.617188 2.796875 25.8125 2.640625 25.96875 C 2.484375 25.96875 2.3125 26.023438 2.125 26.140625 C 1.9375 26.253906 1.878906 26.390625 1.953125 26.546875 C 1.492188 26.847656 1.050781 27.265625 0.625 27.796875 C 0.207031 28.335938 -0.304688 28.6875 -0.921875 28.84375 L -1.5 29.1875 L -0.921875 29.1875 C -0.992188 29.414062 -1.125 29.566406 -1.3125 29.640625 C -1.507812 29.722656 -1.570312 29.835938 -1.5 29.984375 C -1.570312 30.296875 -1.757812 30.566406 -2.0625 30.796875 C -2.375 31.023438 -2.601562 31.21875 -2.75 31.375 C -2.75 31.832031 -3.054688 32.0625 -3.671875 32.0625 C -3.753906 32.519531 -3.890625 32.820312 -4.078125 32.96875 C -4.265625 33.125 -4.398438 33.472656 -4.484375 34.015625 C -4.484375 34.316406 -4.710938 34.46875 -5.171875 34.46875 C -5.554688 35.15625 -6.035156 35.785156 -6.609375 36.359375 C -7.179688 36.941406 -7.660156 37.65625 -8.046875 38.5 C -8.117188 38.800781 -8.289062 39.179688 -8.5625 39.640625 C -8.832031 40.097656 -9.039062 40.484375 -9.1875 40.796875 C -9.269531 41.097656 -9.441406 41.398438 -9.703125 41.703125 C -9.972656 42.015625 -10.265625 42.132812 -10.578125 42.0625 L -10.921875 42.28125 C -10.765625 42.28125 -10.644531 42.359375 -10.5625 42.515625 C -10.488281 42.671875 -10.378906 42.75 -10.234375 42.75 C -10.378906 42.820312 -10.53125 42.992188 -10.6875 43.265625 C -10.84375 43.535156 -11.070312 43.859375 -11.375 44.234375 C -11.675781 44.390625 -11.882812 44.675781 -12 45.09375 C -12.125 45.519531 -12.375 45.847656 -12.75 46.078125 C -13.0625 46.460938 -13.253906 46.882812 -13.328125 47.34375 C -13.398438 47.800781 -13.476562 48.222656 -13.5625 48.609375 C -13.863281 48.910156 -14.070312 49.3125 -14.1875 49.8125 C -14.300781 50.3125 -14.4375 50.753906 -14.59375 51.140625 C -14.59375 51.367188 -14.628906 51.726562 -14.703125 52.21875 C -14.785156 52.71875 -14.976562 53.125 -15.28125 53.4375 C -15.582031 54.195312 -15.753906 54.921875 -15.796875 55.609375 C -15.835938 56.304688 -15.859375 57 -15.859375 57.6875 C -15.859375 58.675781 -15.628906 59.9375 -15.171875 61.46875 L -15.625 62.171875 L -15.625 63.203125 C -15.320312 63.117188 -15.171875 63.269531 -15.171875 63.65625 C -15.015625 63.726562 -14.878906 63.84375 -14.765625 64 C -14.648438 64.15625 -14.476562 64.3125 -14.25 64.46875 C -14.25 65.382812 -14.054688 65.992188 -13.671875 66.296875 C -13.671875 66.984375 -13.363281 67.484375 -12.75 67.796875 C -12.75 67.796875 -12.75 67.851562 -12.75 67.96875 C -12.75 68.082031 -12.710938 68.21875 -12.640625 68.375 L -12.40625 68.375 L -12.0625 68.59375 C -10.457031 69.519531 -8.695312 69.484375 -6.78125 68.484375 C -5.78125 68.328125 -4.820312 67.90625 -3.90625 67.21875 C -2.988281 66.53125 -2.144531 65.84375 -1.375 65.15625 C -0.53125 64.3125 0.328125 63.410156 1.203125 62.453125 C 2.085938 61.492188 2.679688 60.476562 2.984375 59.40625 C 3.597656 58.257812 4.15625 57.222656 4.65625 56.296875 C 5.15625 55.378906 5.671875 54.425781 6.203125 53.4375 C 6.515625 52.738281 6.765625 52.046875 6.953125 51.359375 C 7.140625 50.671875 7.390625 49.984375 7.703125 49.296875 C 8.316406 47.304688 9.039062 45.296875 9.875 43.265625 C 10.71875 41.234375 11.445312 39.222656 12.0625 37.234375 C 12.21875 36.691406 12.410156 35.921875 12.640625 34.921875 C 12.867188 33.929688 13.132812 32.976562 13.4375 32.0625 L 13.09375 32.0625 C 13.09375 31.675781 13.1875 31.40625 13.375 31.25 C 13.570312 31.101562 13.632812 30.988281 13.5625 30.90625 C 13.707031 29.832031 13.875 28.78125 14.0625 27.75 C 14.257812 26.71875 14.515625 25.703125 14.828125 24.703125 C 14.898438 23.554688 15.050781 22.273438 15.28125 20.859375 C 15.507812 19.441406 15.816406 18.117188 16.203125 16.890625 Z M 16.203125 16.890625 "/></g></g></g><g fill="#000000" fill-opacity="1"><g transform="translate(220.10386, 269.114249)"><g><path d="M 43.546875 -15.28125 C 43.015625 -14.4375 42.328125 -13.648438 41.484375 -12.921875 C 40.640625 -12.191406 39.832031 -11.5625 39.0625 -11.03125 C 38.757812 -10.800781 38.4375 -10.609375 38.09375 -10.453125 C 37.75 -10.304688 37.5 -10.15625 37.34375 -10 C 37.1875 -9.84375 36.992188 -9.648438 36.765625 -9.421875 C 36.535156 -9.191406 36.269531 -9 35.96875 -8.84375 C 35.882812 -8.769531 35.691406 -8.578125 35.390625 -8.265625 C 35.085938 -7.960938 34.859375 -7.773438 34.703125 -7.703125 L 32.984375 -6.203125 L 30.21875 -4.140625 C 29.757812 -3.597656 29.28125 -3.210938 28.78125 -2.984375 C 28.28125 -2.753906 27.726562 -2.445312 27.125 -2.0625 C 26.8125 -1.914062 26.539062 -1.820312 26.3125 -1.78125 C 26.082031 -1.738281 25.816406 -1.644531 25.515625 -1.5 C 25.429688 -1.414062 25.253906 -1.335938 24.984375 -1.265625 C 24.722656 -1.191406 24.515625 -1.15625 24.359375 -1.15625 C 24.285156 -1.15625 24.132812 -1.113281 23.90625 -1.03125 C 23.675781 -0.957031 23.484375 -0.921875 23.328125 -0.921875 C 23.097656 -0.921875 22.769531 -0.878906 22.34375 -0.796875 C 21.925781 -0.722656 21.601562 -0.722656 21.375 -0.796875 C 21.289062 -0.878906 21.113281 -0.9375 20.84375 -0.96875 C 20.582031 -1.007812 20.375 -1.070312 20.21875 -1.15625 C 20.070312 -1.226562 19.921875 -1.335938 19.765625 -1.484375 C 19.609375 -1.640625 19.453125 -1.757812 19.296875 -1.84375 C 18.992188 -2.300781 18.648438 -2.679688 18.265625 -2.984375 C 17.890625 -3.296875 17.582031 -3.71875 17.34375 -4.25 C 17.039062 -4.632812 16.847656 -4.898438 16.765625 -5.046875 C 16.691406 -5.203125 16.582031 -5.4375 16.4375 -5.75 C 16.351562 -5.820312 16.289062 -5.914062 16.25 -6.03125 C 16.21875 -6.144531 16.164062 -6.238281 16.09375 -6.3125 C 15.707031 -6.082031 15.4375 -5.757812 15.28125 -5.34375 C 15.125 -4.925781 14.859375 -4.71875 14.484375 -4.71875 C 14.398438 -4.632812 14.320312 -4.515625 14.25 -4.359375 C 14.175781 -4.210938 14.0625 -4.097656 13.90625 -4.015625 C 13.21875 -3.484375 12.429688 -2.890625 11.546875 -2.234375 C 10.671875 -1.585938 9.769531 -1.070312 8.84375 -0.6875 C 7.007812 0.226562 5.171875 0.304688 3.328125 -0.453125 C 2.941406 -0.453125 2.632812 -0.492188 2.40625 -0.578125 C 2.101562 -0.878906 1.492188 -1.257812 0.578125 -1.71875 C -0.492188 -3.101562 -0.800781 -4.632812 -0.34375 -6.3125 C 0.0390625 -7.15625 0.304688 -7.847656 0.453125 -8.390625 C 0.535156 -8.460938 0.578125 -8.539062 0.578125 -8.625 C 0.648438 -9 0.765625 -9.335938 0.921875 -9.640625 C 1.078125 -9.953125 1.191406 -10.300781 1.265625 -10.6875 L 2.0625 -12.0625 C 2.289062 -12.375 2.484375 -12.660156 2.640625 -12.921875 C 2.796875 -13.191406 2.910156 -13.363281 2.984375 -13.4375 C 3.597656 -14.4375 4.269531 -15.316406 5 -16.078125 C 5.726562 -16.847656 6.4375 -17.65625 7.125 -18.5 C 7.8125 -19.269531 8.632812 -19.957031 9.59375 -20.5625 C 10.550781 -21.175781 11.566406 -21.523438 12.640625 -21.609375 C 13.867188 -21.367188 15.054688 -21.039062 16.203125 -20.625 C 17.347656 -20.207031 18.035156 -19.347656 18.265625 -18.046875 C 18.421875 -17.273438 18.34375 -16.601562 18.03125 -16.03125 C 17.726562 -15.457031 17.425781 -14.863281 17.125 -14.25 C 17.582031 -14.320312 18.039062 -14.507812 18.5 -14.8125 C 18.957031 -15.125 19.53125 -15.242188 20.21875 -15.171875 C 20.90625 -14.941406 21.367188 -14.40625 21.609375 -13.5625 C 21.609375 -13.5625 21.609375 -13.3125 21.609375 -12.8125 C 21.609375 -12.3125 21.53125 -11.832031 21.375 -11.375 C 21.289062 -11.300781 21.25 -11.222656 21.25 -11.140625 C 21.25 -11.066406 21.210938 -10.953125 21.140625 -10.796875 C 20.984375 -10.035156 20.925781 -9.234375 20.96875 -8.390625 C 21.007812 -7.546875 21.179688 -6.703125 21.484375 -5.859375 C 21.640625 -5.328125 21.984375 -4.90625 22.515625 -4.59375 C 22.742188 -4.519531 23.015625 -4.519531 23.328125 -4.59375 C 23.484375 -4.675781 23.675781 -4.734375 23.90625 -4.765625 C 24.132812 -4.804688 24.363281 -4.863281 24.59375 -4.9375 C 25.507812 -5.320312 26.425781 -5.835938 27.34375 -6.484375 C 28.269531 -7.140625 29.113281 -7.734375 29.875 -8.265625 C 30.644531 -8.734375 31.445312 -9.234375 32.28125 -9.765625 C 33.125 -10.304688 33.929688 -10.84375 34.703125 -11.375 C 35.617188 -11.988281 36.285156 -12.410156 36.703125 -12.640625 C 37.128906 -12.867188 37.550781 -13.113281 37.96875 -13.375 C 38.394531 -13.644531 39.03125 -14.050781 39.875 -14.59375 C 40.257812 -14.976562 40.695312 -15.320312 41.1875 -15.625 C 41.6875 -15.9375 42.207031 -16.242188 42.75 -16.546875 L 43.09375 -16.3125 Z M 15.515625 -12.0625 C 15.585938 -12.0625 15.703125 -12.15625 15.859375 -12.34375 C 16.015625 -12.539062 16.09375 -12.640625 16.09375 -12.640625 L 15.96875 -12.640625 C 15.125 -12.710938 14.609375 -13.1875 14.421875 -14.0625 C 14.234375 -14.945312 14.195312 -15.832031 14.3125 -16.71875 C 14.425781 -17.601562 14.484375 -18.046875 14.484375 -18.046875 C 13.328125 -17.890625 12.15625 -17.273438 10.96875 -16.203125 C 9.78125 -15.128906 8.726562 -14 7.8125 -12.8125 C 6.894531 -11.625 6.207031 -10.644531 5.75 -9.875 C 5.207031 -8.957031 4.707031 -8 4.25 -7 C 3.789062 -6.007812 3.410156 -4.941406 3.109375 -3.796875 C 3.710938 -3.796875 4.472656 -3.832031 5.390625 -3.90625 C 6.316406 -3.976562 7.046875 -4.128906 7.578125 -4.359375 C 8.878906 -4.898438 10.109375 -5.785156 11.265625 -7.015625 C 12.109375 -7.929688 12.816406 -8.769531 13.390625 -9.53125 C 13.960938 -10.300781 14.671875 -11.144531 15.515625 -12.0625 Z M 15.515625 -12.0625 "/></g></g></g><g fill="#000000" fill-opacity="1"><g transform="translate(257.330498, 269.114249)"><g><path d="M 3.453125 5.28125 C 3.140625 5.132812 2.675781 4.734375 2.0625 4.078125 C 1.457031 3.429688 1.191406 2.875 1.265625 2.40625 C 1.421875 1.414062 1.570312 0.441406 1.71875 -0.515625 C 1.875 -1.472656 2.066406 -2.453125 2.296875 -3.453125 C 2.597656 -4.441406 2.898438 -5.453125 3.203125 -6.484375 C 3.515625 -7.523438 3.785156 -8.539062 4.015625 -9.53125 C 4.171875 -10.226562 4.304688 -10.898438 4.421875 -11.546875 C 4.535156 -12.203125 4.632812 -12.875 4.71875 -13.5625 C 4.71875 -13.789062 4.675781 -13.90625 4.59375 -13.90625 C 4.4375 -14.0625 4.359375 -14.3125 4.359375 -14.65625 C 4.359375 -15 4.398438 -15.320312 4.484375 -15.625 C 4.554688 -16.3125 4.898438 -16.617188 5.515625 -16.546875 C 6.285156 -16.472656 6.9375 -16.222656 7.46875 -15.796875 C 8 -15.378906 8.457031 -14.863281 8.84375 -14.25 C 8.925781 -14.175781 8.96875 -14.097656 8.96875 -14.015625 C 8.882812 -13.554688 8.804688 -13.113281 8.734375 -12.6875 C 8.660156 -12.269531 8.582031 -11.832031 8.5 -11.375 C 8.425781 -10.988281 8.390625 -10.625 8.390625 -10.28125 C 8.390625 -9.9375 8.3125 -9.570312 8.15625 -9.1875 C 8.082031 -8.8125 7.96875 -8.429688 7.8125 -8.046875 C 7.65625 -7.660156 7.503906 -7.273438 7.359375 -6.890625 C 7.359375 -6.742188 7.316406 -6.59375 7.234375 -6.4375 C 7.316406 -6.507812 7.359375 -6.546875 7.359375 -6.546875 C 8.578125 -8.390625 9.835938 -9.960938 11.140625 -11.265625 C 11.910156 -12.179688 12.71875 -12.945312 13.5625 -13.5625 C 13.945312 -13.789062 14.554688 -13.941406 15.390625 -14.015625 C 15.859375 -14.015625 16.1875 -13.992188 16.375 -13.953125 C 16.5625 -13.921875 16.734375 -13.863281 16.890625 -13.78125 C 16.960938 -13.78125 17.765625 -13.398438 19.296875 -12.640625 C 19.378906 -12.335938 19.421875 -12.066406 19.421875 -11.828125 C 19.421875 -11.597656 19.535156 -11.410156 19.765625 -11.265625 C 19.765625 -11.265625 19.765625 -11.035156 19.765625 -10.578125 C 20.148438 -9.578125 20.378906 -8.539062 20.453125 -7.46875 C 20.453125 -7.007812 20.429688 -6.550781 20.390625 -6.09375 C 20.359375 -5.632812 20.300781 -5.175781 20.21875 -4.71875 C 20.21875 -4.632812 20.238281 -4.492188 20.28125 -4.296875 C 20.320312 -4.109375 20.300781 -3.941406 20.21875 -3.796875 C 20.300781 -3.410156 20.34375 -2.988281 20.34375 -2.53125 C 20.34375 -2.070312 20.34375 -1.648438 20.34375 -1.265625 L 20.6875 -0.109375 C 20.6875 -0.0351562 20.742188 0.0703125 20.859375 0.21875 C 20.972656 0.375 21.066406 0.492188 21.140625 0.578125 L 21.484375 0.578125 C 21.566406 0.492188 21.738281 0.394531 22 0.28125 C 22.269531 0.164062 22.90625 -0.15625 23.90625 -0.6875 C 24.664062 -0.914062 25.316406 -1.257812 25.859375 -1.71875 L 36.546875 -11.953125 C 36.921875 -11.953125 37.1875 -11.851562 37.34375 -11.65625 C 37.5 -11.46875 37.421875 -11.179688 37.109375 -10.796875 L 36.078125 -9.1875 C 36.003906 -8.882812 35.945312 -8.617188 35.90625 -8.390625 C 35.863281 -8.160156 35.769531 -7.929688 35.625 -7.703125 C 35.3125 -7.160156 34.925781 -6.695312 34.46875 -6.3125 L 32.515625 -4.015625 C 32.441406 -3.941406 32.382812 -3.804688 32.34375 -3.609375 C 32.300781 -3.421875 32.128906 -3.253906 31.828125 -3.109375 C 31.828125 -3.109375 31.828125 -3.066406 31.828125 -2.984375 C 31.828125 -2.910156 31.863281 -2.832031 31.9375 -2.75 C 31.863281 -2.675781 31.769531 -2.640625 31.65625 -2.640625 C 31.539062 -2.640625 31.484375 -2.601562 31.484375 -2.53125 C 31.253906 -2.070312 30.925781 -1.648438 30.5 -1.265625 C 30.082031 -0.878906 29.679688 -0.492188 29.296875 -0.109375 C 28.992188 0.265625 28.59375 0.644531 28.09375 1.03125 C 27.59375 1.414062 27.078125 1.800781 26.546875 2.1875 C 25.773438 2.71875 24.910156 3.0625 23.953125 3.21875 C 22.992188 3.375 22.09375 3.523438 21.25 3.671875 L 21.140625 3.671875 C 20.753906 3.523438 20.445312 3.394531 20.21875 3.28125 C 19.988281 3.164062 19.722656 2.953125 19.421875 2.640625 C 18.878906 2.253906 18.394531 1.789062 17.96875 1.25 C 17.550781 0.71875 17.226562 0.0703125 17 -0.6875 C 16.695312 -1.6875 16.46875 -2.722656 16.3125 -3.796875 C 16.164062 -4.867188 16.128906 -6.015625 16.203125 -7.234375 C 16.203125 -7.546875 16.21875 -7.890625 16.25 -8.265625 C 16.289062 -8.648438 16.3125 -9 16.3125 -9.3125 C 16.238281 -9.457031 16.144531 -9.566406 16.03125 -9.640625 C 15.914062 -9.722656 15.816406 -9.84375 15.734375 -10 C 15.429688 -8.925781 14.898438 -8.347656 14.140625 -8.265625 C 13.898438 -7.429688 13.363281 -6.820312 12.53125 -6.4375 C 12.601562 -5.976562 12.484375 -5.671875 12.171875 -5.515625 C 11.867188 -5.359375 11.640625 -5.128906 11.484375 -4.828125 C 11.410156 -4.671875 11.273438 -4.476562 11.078125 -4.25 C 10.890625 -4.019531 10.835938 -3.90625 10.921875 -3.90625 L 10.34375 -3.109375 C 10.34375 -3.109375 10.128906 -2.742188 9.703125 -2.015625 C 9.285156 -1.285156 8.863281 -0.484375 8.4375 0.390625 C 8.019531 1.273438 7.695312 1.945312 7.46875 2.40625 C 7.007812 3.019531 6.507812 3.328125 5.96875 3.328125 L 5.625 4.140625 C 5.550781 4.210938 5.492188 4.265625 5.453125 4.296875 C 5.421875 4.335938 5.363281 4.398438 5.28125 4.484375 C 4.90625 5.242188 4.296875 5.507812 3.453125 5.28125 Z M 3.453125 5.28125 "/></g></g></g><g fill="#000000" fill-opacity="1"><g transform="translate(287.088821, 269.114249)"><g><path d="M 32.640625 -15.734375 L 32.75 -15.625 L 32.75 -14.59375 C 32.0625 -13.90625 31.484375 -13.367188 31.015625 -12.984375 C 30.554688 -12.597656 30.140625 -12.289062 29.765625 -12.0625 C 29.535156 -11.90625 29.378906 -11.734375 29.296875 -11.546875 C 29.222656 -11.359375 29.070312 -11.265625 28.84375 -11.265625 L 28.03125 -11.265625 C 27.882812 -11.265625 27.8125 -11.222656 27.8125 -11.140625 C 27.726562 -10.835938 27.515625 -10.644531 27.171875 -10.5625 C 26.828125 -10.488281 26.503906 -10.378906 26.203125 -10.234375 L 24.59375 -9.53125 C 23.976562 -9.226562 23.421875 -9.035156 22.921875 -8.953125 C 22.421875 -8.878906 21.863281 -8.804688 21.25 -8.734375 C 21.101562 -8.734375 20.972656 -8.710938 20.859375 -8.671875 C 20.742188 -8.640625 20.609375 -8.625 20.453125 -8.625 C 19.992188 -8.625 19.765625 -8.390625 19.765625 -7.921875 C 19.691406 -7.773438 19.613281 -7.601562 19.53125 -7.40625 C 19.457031 -7.21875 19.421875 -7.007812 19.421875 -6.78125 L 19.65625 -6.671875 C 19.65625 -6.671875 19.65625 -6.648438 19.65625 -6.609375 C 19.65625 -6.566406 19.65625 -6.546875 19.65625 -6.546875 C 19.34375 -6.242188 19.144531 -5.9375 19.0625 -5.625 C 18.988281 -5.320312 18.765625 -5.054688 18.390625 -4.828125 C 18.304688 -4.753906 18.285156 -4.640625 18.328125 -4.484375 C 18.367188 -4.328125 18.347656 -4.210938 18.265625 -4.140625 C 17.804688 -3.597656 17.40625 -3.054688 17.0625 -2.515625 C 16.71875 -1.984375 16.273438 -1.410156 15.734375 -0.796875 L 15.515625 -0.578125 C 15.203125 -0.265625 14.894531 0.0195312 14.59375 0.28125 C 14.289062 0.550781 14.019531 0.84375 13.78125 1.15625 C 13.320312 1.457031 12.90625 1.609375 12.53125 1.609375 C 12.0625 1.910156 11.617188 2.140625 11.203125 2.296875 C 10.785156 2.453125 10.304688 2.601562 9.765625 2.75 C 9.234375 2.90625 8.851562 2.90625 8.625 2.75 C 8.082031 2.675781 7.484375 2.617188 6.828125 2.578125 C 6.179688 2.546875 5.628906 2.414062 5.171875 2.1875 C 4.484375 2.03125 3.890625 1.78125 3.390625 1.4375 C 2.890625 1.09375 2.445312 0.648438 2.0625 0.109375 C 1.457031 -0.492188 1.078125 -1.296875 0.921875 -2.296875 C 0.765625 -3.296875 0.648438 -4.253906 0.578125 -5.171875 C 0.492188 -6.242188 0.644531 -7.332031 1.03125 -8.4375 C 1.414062 -9.550781 1.757812 -10.609375 2.0625 -11.609375 C 2.21875 -11.992188 2.332031 -12.453125 2.40625 -12.984375 C 2.488281 -13.515625 2.566406 -13.78125 2.640625 -13.78125 C 3.023438 -14.394531 3.367188 -15.007812 3.671875 -15.625 C 3.984375 -16.238281 4.289062 -16.695312 4.59375 -17 C 5.132812 -17.539062 5.691406 -18.039062 6.265625 -18.5 C 6.835938 -18.957031 7.46875 -19.34375 8.15625 -19.65625 C 8.695312 -19.882812 9.234375 -20 9.765625 -20 C 10.304688 -20 10.804688 -20 11.265625 -20 C 11.566406 -20 11.796875 -19.878906 11.953125 -19.640625 C 12.109375 -19.410156 12.300781 -19.179688 12.53125 -18.953125 C 12.601562 -18.878906 12.695312 -18.84375 12.8125 -18.84375 C 12.925781 -18.84375 13.019531 -18.804688 13.09375 -18.734375 C 13.707031 -18.503906 14.378906 -18.332031 15.109375 -18.21875 C 15.835938 -18.101562 16.546875 -17.738281 17.234375 -17.125 C 17.304688 -17.039062 17.4375 -17 17.625 -17 C 17.820312 -17 17.960938 -16.960938 18.046875 -16.890625 C 18.648438 -16.429688 19.222656 -15.628906 19.765625 -14.484375 L 20.5625 -11.953125 C 20.5625 -11.722656 20.5625 -11.609375 20.5625 -11.609375 C 21.632812 -11.992188 22.671875 -12.359375 23.671875 -12.703125 C 24.671875 -13.046875 25.664062 -13.367188 26.65625 -13.671875 C 27.5 -14.054688 28.34375 -14.363281 29.1875 -14.59375 C 30.03125 -14.820312 31.179688 -15.203125 32.640625 -15.734375 Z M 16.3125 -11.140625 C 16.238281 -11.453125 16.21875 -11.78125 16.25 -12.125 C 16.289062 -12.46875 16.3125 -12.789062 16.3125 -13.09375 C 16.238281 -13.550781 16.144531 -14.046875 16.03125 -14.578125 C 15.914062 -15.117188 15.703125 -15.625 15.390625 -16.09375 C 15.242188 -16.394531 14.976562 -16.46875 14.59375 -16.3125 C 13.90625 -16.3125 13.367188 -16.117188 12.984375 -15.734375 C 12.679688 -15.429688 12.351562 -15.144531 12 -14.875 C 11.65625 -14.613281 11.445312 -14.210938 11.375 -13.671875 C 11.375 -12.984375 11.523438 -12.367188 11.828125 -11.828125 C 11.984375 -11.367188 12.40625 -11.140625 13.09375 -11.140625 Z M 15.28125 -7.703125 C 15.582031 -8.078125 15.46875 -8.382812 14.9375 -8.625 C 14.164062 -8.625 13.476562 -8.738281 12.875 -8.96875 C 11.644531 -9.195312 10.53125 -9.691406 9.53125 -10.453125 C 8.6875 -10.910156 8.148438 -11.488281 7.921875 -12.1875 C 7.617188 -12.5625 7.429688 -12.976562 7.359375 -13.4375 C 7.046875 -12.75 6.753906 -12.15625 6.484375 -11.65625 C 6.222656 -11.164062 5.9375 -10.613281 5.625 -10 C 5.476562 -9.769531 5.347656 -9.5 5.234375 -9.1875 C 5.117188 -8.882812 5.019531 -8.617188 4.9375 -8.390625 C 4.863281 -8.078125 4.804688 -7.769531 4.765625 -7.46875 C 4.734375 -7.164062 4.675781 -6.859375 4.59375 -6.546875 C 4.363281 -6.015625 4.226562 -5.421875 4.1875 -4.765625 C 4.15625 -4.117188 4.140625 -3.488281 4.140625 -2.875 C 4.140625 -2.488281 4.175781 -2.140625 4.25 -1.828125 C 4.320312 -1.523438 4.398438 -1.179688 4.484375 -0.796875 C 4.554688 -0.335938 4.878906 -0.015625 5.453125 0.171875 C 6.023438 0.359375 6.695312 0.300781 7.46875 0 C 8.3125 -0.226562 9.132812 -0.609375 9.9375 -1.140625 C 10.738281 -1.679688 11.445312 -2.257812 12.0625 -2.875 C 12.832031 -3.632812 13.484375 -4.4375 14.015625 -5.28125 C 14.242188 -5.664062 14.4375 -6.066406 14.59375 -6.484375 C 14.75 -6.910156 14.976562 -7.316406 15.28125 -7.703125 Z M 15.28125 -7.703125 "/></g></g></g><g fill="#000000" fill-opacity="1"><g transform="translate(314.089623, 269.114249)"><g><path d="M 4.71875 9.3125 L 2.875 8.5 C 2.875 8.425781 2.757812 8.175781 2.53125 7.75 C 2.300781 7.332031 2.144531 7.125 2.0625 7.125 C 1.6875 7.125 1.457031 6.910156 1.375 6.484375 C 1.300781 6.066406 1.148438 5.664062 0.921875 5.28125 C 0.835938 4.90625 0.773438 4.582031 0.734375 4.3125 C 0.703125 4.039062 0.6875 3.867188 0.6875 3.796875 C 0.6875 2.867188 0.722656 1.960938 0.796875 1.078125 C 0.878906 0.203125 0.878906 -0.65625 0.796875 -1.5 C 0.953125 -2.101562 1.109375 -2.597656 1.265625 -2.984375 C 1.421875 -3.367188 1.535156 -3.789062 1.609375 -4.25 C 1.609375 -4.863281 1.722656 -5.457031 1.953125 -6.03125 C 2.179688 -6.601562 2.375 -7.117188 2.53125 -7.578125 C 2.53125 -8.191406 2.601562 -8.804688 2.75 -9.421875 C 2.90625 -10.035156 3.0625 -10.609375 3.21875 -11.140625 C 3.289062 -11.597656 3.363281 -12.035156 3.4375 -12.453125 C 3.519531 -12.878906 3.640625 -13.363281 3.796875 -13.90625 L 4.828125 -18.15625 C 5.128906 -18.226562 5.507812 -18.128906 5.96875 -17.859375 C 6.4375 -17.597656 6.859375 -17.390625 7.234375 -17.234375 C 7.316406 -17.160156 7.359375 -17.046875 7.359375 -16.890625 C 7.359375 -16.734375 7.394531 -16.582031 7.46875 -16.4375 C 7.46875 -16.28125 7.617188 -16.046875 7.921875 -15.734375 C 8.078125 -14.585938 8.019531 -13.441406 7.75 -12.296875 C 7.488281 -11.148438 7.28125 -10 7.125 -8.84375 C 6.820312 -7.625 6.535156 -6.457031 6.265625 -5.34375 C 5.992188 -4.226562 5.664062 -3.0625 5.28125 -1.84375 C 5.207031 -1.070312 5.113281 -0.304688 5 0.453125 C 4.882812 1.222656 4.75 2.03125 4.59375 2.875 C 5.207031 2.875 5.742188 2.660156 6.203125 2.234375 C 6.660156 1.816406 7.117188 1.457031 7.578125 1.15625 C 8.578125 0.382812 9.460938 -0.570312 10.234375 -1.71875 C 10.609375 -2.03125 10.945312 -2.414062 11.25 -2.875 C 11.5625 -3.332031 11.875 -3.753906 12.1875 -4.140625 C 13.71875 -5.742188 14.863281 -7.46875 15.625 -9.3125 C 16.082031 -10.15625 16.5625 -10.992188 17.0625 -11.828125 C 17.5625 -12.671875 18.078125 -13.515625 18.609375 -14.359375 C 18.765625 -14.816406 18.976562 -15.332031 19.25 -15.90625 C 19.519531 -16.488281 19.804688 -17.085938 20.109375 -17.703125 C 20.265625 -17.929688 20.414062 -18.160156 20.5625 -18.390625 C 20.71875 -18.617188 20.875 -18.734375 21.03125 -18.734375 C 21.175781 -18.734375 21.285156 -18.632812 21.359375 -18.4375 C 21.441406 -18.25 21.5625 -18.078125 21.71875 -17.921875 C 21.789062 -17.847656 21.847656 -17.753906 21.890625 -17.640625 C 21.929688 -17.523438 21.988281 -17.425781 22.0625 -17.34375 C 22.675781 -16.507812 22.789062 -15.441406 22.40625 -14.140625 L 20.90625 -10.234375 C 20.21875 -8.546875 19.773438 -7.453125 19.578125 -6.953125 C 19.390625 -6.453125 19.222656 -6.050781 19.078125 -5.75 C 18.921875 -5.363281 18.742188 -4.957031 18.546875 -4.53125 C 18.359375 -4.113281 18.035156 -3.789062 17.578125 -3.5625 C 17.503906 -3.5625 17.425781 -3.539062 17.34375 -3.5 C 17.269531 -3.46875 17.234375 -3.453125 17.234375 -3.453125 C 17.160156 -2.679688 16.953125 -2.046875 16.609375 -1.546875 C 16.265625 -1.046875 15.898438 -0.492188 15.515625 0.109375 C 15.203125 0.492188 14.875 0.859375 14.53125 1.203125 C 14.1875 1.546875 13.863281 1.910156 13.5625 2.296875 C 13.175781 2.753906 12.769531 3.234375 12.34375 3.734375 C 11.925781 4.234375 11.410156 4.675781 10.796875 5.0625 C 10.492188 5.59375 10.148438 6.050781 9.765625 6.4375 C 9.378906 6.820312 9 7.203125 8.625 7.578125 C 7.925781 7.960938 7.25 8.25 6.59375 8.4375 C 5.945312 8.632812 5.320312 8.925781 4.71875 9.3125 Z M 4.71875 9.3125 "/></g></g></g><g fill="#000000" fill-opacity="1"><g transform="translate(340.290506, 269.114249)"><g/></g></g><g fill="#000000" fill-opacity="1"><g transform="translate(37.500002, 255.587793)"><g><path d="M 178.484375 -185.234375 C 180.898438 -182.285156 182.367188 -178.910156 182.890625 -175.109375 C 183.410156 -171.304688 183.148438 -167.585938 182.109375 -163.953125 C 180.722656 -158.421875 178.128906 -153.707031 174.328125 -149.8125 C 170.523438 -145.925781 166.203125 -142.597656 161.359375 -139.828125 C 156.515625 -137.054688 151.585938 -134.460938 146.578125 -132.046875 C 146.398438 -132.046875 146.222656 -132.175781 146.046875 -132.4375 C 145.878906 -132.695312 145.878906 -132.910156 146.046875 -133.078125 C 147.953125 -133.941406 149.851562 -134.847656 151.75 -135.796875 C 153.65625 -136.753906 155.5625 -137.835938 157.46875 -139.046875 C 161.101562 -141.472656 164.5625 -144.066406 167.84375 -146.828125 C 171.132812 -149.597656 173.898438 -152.800781 176.140625 -156.4375 C 178.046875 -159.894531 179.257812 -163.566406 179.78125 -167.453125 C 180.300781 -171.347656 179.867188 -175.109375 178.484375 -178.734375 C 176.921875 -182.546875 174.410156 -185.53125 170.953125 -187.6875 C 167.492188 -189.851562 163.773438 -191.367188 159.796875 -192.234375 C 156.171875 -193.265625 152.410156 -193.992188 148.515625 -194.421875 C 144.628906 -194.859375 140.695312 -195.078125 136.71875 -195.078125 C 121.320312 -195.253906 106.226562 -192.570312 91.4375 -187.03125 C 76.65625 -181.5 63.472656 -173.632812 51.890625 -163.4375 C 49.117188 -160.84375 46.390625 -158.160156 43.703125 -155.390625 C 41.023438 -152.628906 38.476562 -149.691406 36.0625 -146.578125 C 33.289062 -142.941406 30.738281 -139.175781 28.40625 -135.28125 C 26.070312 -131.394531 24.300781 -127.375 23.09375 -123.21875 C 20.84375 -114.75 21.53125 -106.664062 25.15625 -98.96875 C 28.789062 -91.269531 33.375 -84.484375 38.90625 -78.609375 C 45.132812 -72.378906 51.921875 -66.84375 59.265625 -62 C 66.617188 -57.15625 73.410156 -51.625 79.640625 -45.40625 C 83.617188 -41.59375 87.078125 -37.351562 90.015625 -32.6875 C 92.953125 -28.019531 94.894531 -23.132812 95.84375 -18.03125 C 96.800781 -12.925781 96.070312 -7.609375 93.65625 -2.078125 C 90.882812 4.671875 86.296875 10.078125 79.890625 14.140625 C 73.492188 18.203125 66.753906 20.925781 59.671875 22.3125 C 52.054688 24.207031 44.359375 23.945312 36.578125 21.53125 C 28.453125 18.59375 21.617188 13.835938 16.078125 7.265625 C 15.390625 6.398438 15.390625 5.75 16.078125 5.3125 C 16.773438 4.882812 17.382812 4.84375 17.90625 5.1875 C 20.664062 8.300781 24.207031 10.984375 28.53125 13.234375 C 35.625 16.859375 43.191406 18.582031 51.234375 18.40625 C 59.273438 18.238281 66.753906 16.164062 73.671875 12.1875 C 76.785156 10.289062 79.679688 8.171875 82.359375 5.828125 C 85.046875 3.492188 87.253906 0.6875 88.984375 -2.59375 C 90.878906 -6.394531 91.738281 -10.238281 91.5625 -14.125 C 91.394531 -18.019531 90.445312 -21.875 88.71875 -25.6875 C 86.988281 -29.664062 84.65625 -33.382812 81.71875 -36.84375 C 78.78125 -40.300781 75.582031 -43.410156 72.125 -46.171875 C 68.664062 -49.117188 65.117188 -51.929688 61.484375 -54.609375 C 57.847656 -57.285156 54.128906 -60.007812 50.328125 -62.78125 C 43.929688 -67.789062 37.789062 -73.453125 31.90625 -79.765625 C 26.03125 -86.078125 21.796875 -93.210938 19.203125 -101.171875 C 17.984375 -105.148438 17.375 -109.257812 17.375 -113.5 C 17.375 -117.738281 17.984375 -121.929688 19.203125 -126.078125 C 20.753906 -130.398438 22.738281 -134.503906 25.15625 -138.390625 C 27.582031 -142.285156 30.179688 -146.050781 32.953125 -149.6875 C 37.785156 -155.914062 43.097656 -161.664062 48.890625 -166.9375 C 54.691406 -172.207031 60.960938 -176.75 67.703125 -180.5625 C 81.367188 -188.6875 95.984375 -194.21875 111.546875 -197.15625 C 127.628906 -200.101562 143.195312 -200.019531 158.25 -196.90625 C 162.226562 -195.863281 166.03125 -194.476562 169.65625 -192.75 C 173.289062 -191.019531 176.234375 -188.515625 178.484375 -185.234375 Z M 178.484375 -185.234375 "/></g></g></g><g fill="#000000" fill-opacity="1"><g transform="translate(209.009345, 298.160848)"><g><path d="M 14.484375 -13.15625 C 14.128906 -13.800781 13.628906 -14.289062 12.984375 -14.625 C 12.335938 -14.96875 11.570312 -15.140625 10.6875 -15.140625 C 9.175781 -15.140625 7.960938 -14.640625 7.046875 -13.640625 C 6.128906 -12.640625 5.671875 -11.3125 5.671875 -9.65625 C 5.671875 -7.882812 6.148438 -6.5 7.109375 -5.5 C 8.078125 -4.5 9.398438 -4 11.078125 -4 C 12.234375 -4 13.207031 -4.289062 14 -4.875 C 14.789062 -5.46875 15.367188 -6.3125 15.734375 -7.40625 L 9.796875 -7.40625 L 9.796875 -10.859375 L 19.984375 -10.859375 L 19.984375 -6.5 C 19.640625 -5.332031 19.050781 -4.242188 18.21875 -3.234375 C 17.382812 -2.234375 16.328125 -1.421875 15.046875 -0.796875 C 13.773438 -0.171875 12.332031 0.140625 10.71875 0.140625 C 8.820312 0.140625 7.128906 -0.273438 5.640625 -1.109375 C 4.148438 -1.941406 2.988281 -3.097656 2.15625 -4.578125 C 1.320312 -6.054688 0.90625 -7.75 0.90625 -9.65625 C 0.90625 -11.550781 1.320312 -13.242188 2.15625 -14.734375 C 2.988281 -16.222656 4.144531 -17.382812 5.625 -18.21875 C 7.101562 -19.050781 8.789062 -19.46875 10.6875 -19.46875 C 13 -19.46875 14.941406 -18.910156 16.515625 -17.796875 C 18.097656 -16.679688 19.144531 -15.132812 19.65625 -13.15625 Z M 14.484375 -13.15625 "/></g></g></g><g fill="#000000" fill-opacity="1"><g transform="translate(229.9077, 298.160848)"><g><path d="M 16.8125 -15.296875 L 16.8125 0 L 12.125 0 L 12.125 -2.078125 C 11.644531 -1.398438 11 -0.851562 10.1875 -0.4375 C 9.375 -0.03125 8.472656 0.171875 7.484375 0.171875 C 6.316406 0.171875 5.285156 -0.0859375 4.390625 -0.609375 C 3.492188 -1.140625 2.796875 -1.894531 2.296875 -2.875 C 1.804688 -3.863281 1.5625 -5.023438 1.5625 -6.359375 L 1.5625 -15.296875 L 6.21875 -15.296875 L 6.21875 -7 C 6.21875 -5.96875 6.484375 -5.164062 7.015625 -4.59375 C 7.546875 -4.03125 8.257812 -3.75 9.15625 -3.75 C 10.070312 -3.75 10.796875 -4.03125 11.328125 -4.59375 C 11.859375 -5.164062 12.125 -5.96875 12.125 -7 L 12.125 -15.296875 Z M 16.8125 -15.296875 "/></g></g></g><g fill="#000000" fill-opacity="1"><g transform="translate(248.392596, 298.160848)"><g><path d="M 4.0625 -16.890625 C 3.238281 -16.890625 2.566406 -17.128906 2.046875 -17.609375 C 1.523438 -18.097656 1.265625 -18.703125 1.265625 -19.421875 C 1.265625 -20.148438 1.523438 -20.753906 2.046875 -21.234375 C 2.566406 -21.722656 3.238281 -21.96875 4.0625 -21.96875 C 4.863281 -21.96875 5.523438 -21.722656 6.046875 -21.234375 C 6.566406 -20.753906 6.828125 -20.148438 6.828125 -19.421875 C 6.828125 -18.703125 6.566406 -18.097656 6.046875 -17.609375 C 5.523438 -17.128906 4.863281 -16.890625 4.0625 -16.890625 Z M 6.390625 -15.296875 L 6.390625 0 L 1.703125 0 L 1.703125 -15.296875 Z M 6.390625 -15.296875 "/></g></g></g><g fill="#000000" fill-opacity="1"><g transform="translate(256.48317, 298.160848)"><g><path d="M 10.234375 -3.96875 L 10.234375 0 L 7.84375 0 C 6.144531 0 4.816406 -0.414062 3.859375 -1.25 C 2.910156 -2.082031 2.4375 -3.4375 2.4375 -5.3125 L 2.4375 -11.40625 L 0.578125 -11.40625 L 0.578125 -15.296875 L 2.4375 -15.296875 L 2.4375 -19.03125 L 7.125 -19.03125 L 7.125 -15.296875 L 10.203125 -15.296875 L 10.203125 -11.40625 L 7.125 -11.40625 L 7.125 -5.265625 C 7.125 -4.804688 7.234375 -4.472656 7.453125 -4.265625 C 7.671875 -4.066406 8.039062 -3.96875 8.5625 -3.96875 Z M 10.234375 -3.96875 "/></g></g></g><g fill="#000000" fill-opacity="1"><g transform="translate(267.61799, 298.160848)"><g><path d="M 0.765625 -7.671875 C 0.765625 -9.242188 1.0625 -10.625 1.65625 -11.8125 C 2.25 -13 3.054688 -13.910156 4.078125 -14.546875 C 5.109375 -15.191406 6.253906 -15.515625 7.515625 -15.515625 C 8.585938 -15.515625 9.53125 -15.296875 10.34375 -14.859375 C 11.164062 -14.421875 11.796875 -13.847656 12.234375 -13.140625 L 12.234375 -15.296875 L 16.921875 -15.296875 L 16.921875 0 L 12.234375 0 L 12.234375 -2.171875 C 11.773438 -1.453125 11.140625 -0.875 10.328125 -0.4375 C 9.515625 0 8.566406 0.21875 7.484375 0.21875 C 6.242188 0.21875 5.109375 -0.101562 4.078125 -0.75 C 3.054688 -1.40625 2.25 -2.328125 1.65625 -3.515625 C 1.0625 -4.710938 0.765625 -6.097656 0.765625 -7.671875 Z M 12.234375 -7.65625 C 12.234375 -8.820312 11.90625 -9.742188 11.25 -10.421875 C 10.601562 -11.097656 9.816406 -11.4375 8.890625 -11.4375 C 7.953125 -11.4375 7.160156 -11.101562 6.515625 -10.4375 C 5.867188 -9.769531 5.546875 -8.847656 5.546875 -7.671875 C 5.546875 -6.503906 5.867188 -5.578125 6.515625 -4.890625 C 7.160156 -4.203125 7.953125 -3.859375 8.890625 -3.859375 C 9.816406 -3.859375 10.601562 -4.195312 11.25 -4.875 C 11.90625 -5.550781 12.234375 -6.476562 12.234375 -7.65625 Z M 12.234375 -7.65625 "/></g></g></g><g fill="#000000" fill-opacity="1"><g transform="translate(286.24002, 298.160848)"><g><path d="M 6.390625 -12.75 C 6.941406 -13.59375 7.628906 -14.253906 8.453125 -14.734375 C 9.273438 -15.222656 10.1875 -15.46875 11.1875 -15.46875 L 11.1875 -10.5 L 9.90625 -10.5 C 8.726562 -10.5 7.847656 -10.25 7.265625 -9.75 C 6.679688 -9.25 6.390625 -8.367188 6.390625 -7.109375 L 6.390625 0 L 1.703125 0 L 1.703125 -15.296875 L 6.390625 -15.296875 Z M 6.390625 -12.75 "/></g></g></g><g fill="#000000" fill-opacity="1"><g transform="translate(297.978205, 298.160848)"><g><path d="M 7.921875 0.21875 C 6.585938 0.21875 5.398438 -0.0078125 4.359375 -0.46875 C 3.316406 -0.925781 2.492188 -1.550781 1.890625 -2.34375 C 1.285156 -3.132812 0.945312 -4.023438 0.875 -5.015625 L 5.515625 -5.015625 C 5.566406 -4.484375 5.8125 -4.050781 6.25 -3.71875 C 6.6875 -3.394531 7.226562 -3.234375 7.875 -3.234375 C 8.457031 -3.234375 8.90625 -3.347656 9.21875 -3.578125 C 9.539062 -3.804688 9.703125 -4.101562 9.703125 -4.46875 C 9.703125 -4.90625 9.472656 -5.226562 9.015625 -5.4375 C 8.566406 -5.65625 7.828125 -5.890625 6.796875 -6.140625 C 5.703125 -6.398438 4.789062 -6.671875 4.0625 -6.953125 C 3.332031 -7.234375 2.703125 -7.679688 2.171875 -8.296875 C 1.640625 -8.910156 1.375 -9.738281 1.375 -10.78125 C 1.375 -11.65625 1.613281 -12.453125 2.09375 -13.171875 C 2.582031 -13.898438 3.296875 -14.472656 4.234375 -14.890625 C 5.179688 -15.304688 6.300781 -15.515625 7.59375 -15.515625 C 9.507812 -15.515625 11.019531 -15.039062 12.125 -14.09375 C 13.238281 -13.144531 13.878906 -11.882812 14.046875 -10.3125 L 9.703125 -10.3125 C 9.628906 -10.84375 9.394531 -11.257812 9 -11.5625 C 8.613281 -11.875 8.097656 -12.03125 7.453125 -12.03125 C 6.910156 -12.03125 6.492188 -11.925781 6.203125 -11.71875 C 5.910156 -11.507812 5.765625 -11.222656 5.765625 -10.859375 C 5.765625 -10.421875 5.992188 -10.09375 6.453125 -9.875 C 6.921875 -9.65625 7.648438 -9.4375 8.640625 -9.21875 C 9.773438 -8.925781 10.695312 -8.632812 11.40625 -8.34375 C 12.125 -8.0625 12.75 -7.601562 13.28125 -6.96875 C 13.820312 -6.34375 14.101562 -5.5 14.125 -4.4375 C 14.125 -3.539062 13.867188 -2.738281 13.359375 -2.03125 C 12.859375 -1.332031 12.140625 -0.78125 11.203125 -0.375 C 10.265625 0.0195312 9.171875 0.21875 7.921875 0.21875 Z M 7.921875 0.21875 "/></g></g></g></svg>